<svg width="96" height="96" xmlns="http://www.w3.org/2000/svg" xmlns:xlink="http://www.w3.org/1999/xlink" xml:space="preserve" overflow="hidden"><g transform="translate(-594 -477)"><path d="M650 509 665 509 665 511 650 511Z"/><path d="M650 515 665 515 665 517 650 517Z"/><path d="M650 521 660 521 660 523 650 523Z"/><path d="M681 501 675 501 675 496.6C675 496.173 674.729 495.793 674.325 495.654 663.84 492.154 652.508 492.115 642 495.544 631.492 492.115 620.16 492.153 609.675 495.653 609.271 495.792 608.999 496.172 609 496.6L609 501 603 501C602.448 501 602 501.448 602 502L602 550C602 550.552 602.448 551 603 551L635.1 551C635.52 552.759 637.092 554 638.9 554L645.1 554C646.908 554 648.48 552.759 648.9 551L681 551C681.552 551 682 550.552 682 550L682 502C682 501.448 681.552 501 681 501ZM673 497.32 673 543.22C663.22 540.256 652.78 540.256 643 543.22L643 497.32C652.761 494.227 663.239 494.227 673 497.32ZM611 497.32C620.761 494.227 631.239 494.227 641 497.32L641 543.22C631.22 540.256 620.78 540.256 611 543.22ZM680 549 648 549C647.448 549 647 549.448 647 550L647 550.1C647 551.149 646.149 552 645.1 552L638.9 552C637.851 552 637 551.149 637 550.1L637 550C637 549.448 636.552 549 636 549L604 549 604 503 609 503 609 544.6C609 545.152 609.447 545.6 610 545.6 610.11 545.6 610.22 545.582 610.325 545.546 620.5 542.153 631.5 542.153 641.675 545.546 641.692 545.55 641.708 545.552 641.725 545.554 641.799 545.576 641.875 545.589 641.952 545.592 641.968 545.592 641.984 545.6 642 545.6 642.016 545.6 642.025 545.595 642.037 545.594 642.113 545.592 642.189 545.58 642.262 545.56 642.278 545.56 642.295 545.554 642.312 545.549L642.325 545.549C652.5 542.156 663.5 542.156 673.675 545.549 673.78 545.584 673.89 545.601 674 545.6 674.552 545.6 675 545.152 675 544.6L675 503 680 503Z"/></g></svg>