<svg width="96" height="96" xmlns="http://www.w3.org/2000/svg" xmlns:xlink="http://www.w3.org/1999/xlink" xml:space="preserve" overflow="hidden"><g transform="translate(-789 -477)"><path d="M799 498 799 552 875 552 875 498ZM839.122 532.464C837.948 533.631 836.052 533.631 834.878 532.464L802.431 500.017C802.427 500.013 802.427 500.007 802.431 500.003 802.433 500.001 802.435 500 802.438 500L871.562 500C871.568 500 871.572 500.005 871.572 500.01 871.572 500.013 871.571 500.015 871.569 500.017ZM824.586 525 801.017 548.569C801.013 548.573 801.007 548.573 801.003 548.569 801.001 548.567 801 548.565 801 548.562L801 501.438C801 501.432 801.005 501.428 801.01 501.428 801.013 501.428 801.015 501.429 801.017 501.431ZM826 526.414 833.464 533.878C835.416 535.831 838.582 535.831 840.535 533.879 840.535 533.879 840.536 533.878 840.536 533.878L848 526.414 871.569 549.983C871.573 549.987 871.573 549.993 871.569 549.997 871.567 549.999 871.565 550 871.562 550L802.438 550C802.432 550 802.428 549.995 802.428 549.99 802.428 549.987 802.429 549.985 802.431 549.983ZM849.414 525 872.983 501.431C872.987 501.427 872.993 501.427 872.997 501.431 872.999 501.433 873 501.435 873 501.438L873 548.562C873 548.568 872.995 548.572 872.99 548.572 872.987 548.572 872.985 548.571 872.983 548.569Z"/></g></svg>