<svg width="573" height="573" xmlns="http://www.w3.org/2000/svg" xmlns:xlink="http://www.w3.org/1999/xlink" xml:space="preserve" overflow="hidden"><defs><clipPath id="clip0"><rect x="512" y="1848" width="573" height="573"/></clipPath></defs><g clip-path="url(#clip0)" transform="translate(-512 -1848)"><path d="M1056.35 2421 540.65 2421C524.892 2421 512 2408.13 512 2392.39L512 1934.61C512 1918.88 524.892 1906 540.65 1906L1056.35 1906C1072.11 1906 1085 1918.88 1085 1934.61L1085 2392.39C1085 2408.13 1072.11 2421 1056.35 2421Z" fill="#D9F2D0" fill-rule="evenodd"/><path d="M1085 2020 512 2020 512 1934.5C512 1918.83 524.892 1906 540.65 1906L1056.35 1906C1072.11 1906 1085 1918.83 1085 1934.5L1085 2020Z" fill="#0D9819" fill-rule="evenodd"/><path d="M633.68 1963C617.906 1963 605 1950.06 605 1934.25L605 1876.75C605 1860.94 617.906 1848 633.68 1848 649.453 1848 662.358 1860.94 662.358 1876.75L662.358 1934.25C662.358 1950.06 649.453 1963 633.68 1963ZM956.321 1963C940.547 1963 927.642 1950.06 927.642 1934.25L927.642 1876.75C927.642 1860.94 940.547 1848 956.321 1848 972.094 1848 985 1860.94 985 1876.75L985 1934.25C985 1950.06 972.094 1963 956.321 1963Z" fill="#B4E5A2" fill-rule="evenodd"/><path d="M598 2192 655 2192 655 2250 598 2250Z" fill="#48AA4F" fill-rule="evenodd"/><path d="M598 2293 655 2293 655 2350 598 2350Z" fill="#56B75E" fill-rule="evenodd"/><path d="M713 2192 770 2192 770 2250 713 2250Z" fill="#0D9819" fill-rule="evenodd"/><path d="M713 2293 770 2293 770 2350 713 2350Z" fill="#56B75E" fill-rule="evenodd"/><path d="M827 2192 884 2192 884 2250 827 2250Z" fill="#0D9819" fill-rule="evenodd"/><path d="M827 2293 884 2293 884 2350 827 2350Z" fill="#56B75E" fill-rule="evenodd"/><path d="M942 2192 999 2192 999 2250 942 2250Z" fill="#0D9819" fill-rule="evenodd"/><path d="M713 2092 770.2 2092 770.2 2149 713 2149ZM827.4 2092 884.6 2092 884.6 2149 827.4 2149ZM941.8 2092 999 2092 999 2149 941.8 2149Z" fill="#0B7B16" fill-rule="evenodd"/></g></svg>