<svg width="96" height="96" xmlns="http://www.w3.org/2000/svg" xmlns:xlink="http://www.w3.org/1999/xlink" xml:space="preserve" overflow="hidden"><g transform="translate(-693 -575)"><path d="M761 595 761 590C761 589.448 760.552 589 760 589 759.448 589 759 589.448 759 590L759 595 723 595 723 590C723 589.448 722.552 589 722 589 721.448 589 721 589.448 721 590L721 595 707 595 707 657 775 657 775 595ZM773 655 709 655 709 611 773 611ZM709 609 709 597 721 597 721 601C721 601.552 721.448 602 722 602 722.552 602 723 601.552 723 601L723 597 759 597 759 601C759 601.552 759.448 602 760 602 760.552 602 761 601.552 761 601L761 597 773 597 773 609Z"/><path d="M734 649 767 649 767 617 715 617 715 649 734 649ZM734 647 734 639 748 639 748 647ZM734 629 748 629 748 637 734 637ZM732 637 717 637 717 629 732 629ZM750 629 765 629 765 637 750 637ZM750 647 750 639 765 639 765 647ZM765 619 765 627 750 627 750 619ZM748 619 748 627 734 627 734 619ZM732 619 732 627 717 627 717 619ZM717 647 717 639 732 639 732 647Z"/></g></svg>