<?xml version="1.0" encoding="UTF-8" ?>
<!DOCTYPE svg PUBLIC "-//W3C//DTD SVG 1.1//EN" "http://www.w3.org/Graphics/SVG/1.1/DTD/svg11.dtd">
<svg width="800pt" height="800pt" viewBox="0 0 800 800" version="1.1" xmlns="http://www.w3.org/2000/svg">
<g id="#000000ff">
<path fill="#000000" opacity="1.00" d=" M 0.00 0.00 L 800.00 0.00 L 800.00 800.00 L 0.00 800.00 L 0.00 0.00 M 136.68 90.80 C 129.55 115.34 124.89 140.55 121.91 165.92 C 116.28 215.00 117.53 264.96 126.65 313.55 C 133.05 348.03 143.89 381.57 157.25 413.95 C 167.35 437.92 179.13 461.39 194.66 482.34 C 196.47 484.91 198.38 487.41 200.38 489.85 C 202.05 492.08 203.94 494.14 205.80 496.22 C 207.42 498.22 209.15 500.14 211.07 501.88 C 211.71 502.94 212.78 503.70 213.65 504.59 C 226.72 517.85 242.55 528.65 260.23 534.72 C 266.29 536.74 272.55 538.59 279.00 538.58 C 288.16 538.70 297.14 535.71 304.98 531.11 C 316.50 524.37 326.01 514.72 334.36 504.41 C 346.51 489.26 356.37 472.40 365.04 455.05 C 371.13 442.61 376.94 429.97 381.50 416.89 C 380.96 405.69 379.13 394.56 377.39 383.48 C 372.46 354.47 365.05 325.84 354.72 298.27 C 344.85 272.11 332.46 246.70 315.98 224.02 C 295.51 195.81 268.87 172.21 238.81 154.64 C 238.41 154.36 237.60 153.82 237.20 153.54 C 235.54 152.66 233.91 151.72 232.29 150.77 C 225.40 146.82 218.23 143.40 211.23 139.67 L 209.65 139.56 L 209.91 139.09 C 208.19 138.38 206.49 137.64 204.80 136.87 C 199.18 134.29 193.52 131.81 187.83 129.38 C 177.05 124.32 165.32 120.67 155.94 113.07 C 147.44 106.02 141.57 96.15 138.66 85.56 C 137.86 87.25 137.17 88.99 136.68 90.80 M 687.54 116.83 C 685.88 122.48 682.90 127.69 678.96 132.04 C 670.45 141.64 658.68 147.52 646.74 151.68 C 626.81 158.78 607.02 166.48 588.31 176.42 C 565.24 188.47 543.38 202.79 522.85 218.77 C 494.20 241.69 473.52 273.04 458.06 305.98 C 442.73 339.07 432.03 374.25 425.60 410.13 C 425.27 412.41 424.46 414.83 425.48 417.06 C 431.72 434.33 439.65 451.02 449.34 466.63 C 458.91 481.87 470.30 496.24 484.57 507.34 C 496.42 516.64 510.64 523.16 525.71 524.76 C 546.62 527.04 566.98 517.89 582.98 505.03 C 598.07 493.12 610.56 478.25 621.57 462.57 C 640.54 435.25 655.19 405.14 667.09 374.14 C 680.15 339.89 689.72 304.06 693.22 267.56 C 694.52 259.96 694.96 252.24 695.36 244.56 C 696.76 227.40 696.68 210.16 696.20 192.96 C 695.06 167.44 692.84 141.85 687.54 116.83 M 148.13 439.97 C 155.29 456.73 163.79 472.89 171.63 489.34 C 181.33 509.21 191.19 528.99 201.33 548.63 C 202.37 550.41 203.30 552.26 203.76 554.30 C 204.82 553.47 206.33 552.81 206.66 554.64 C 205.89 555.08 205.12 555.54 204.37 556.02 C 206.41 556.61 206.46 558.97 207.25 560.55 C 207.97 560.54 209.40 560.51 210.12 560.50 C 209.51 560.58 208.28 560.74 207.66 560.82 C 208.94 563.04 210.07 565.33 211.12 567.68 C 211.66 567.28 212.75 566.48 213.29 566.09 C 212.86 566.59 212.00 567.59 211.57 568.10 C 212.98 569.90 213.12 573.92 216.18 573.24 C 215.86 573.54 215.21 574.13 214.89 574.42 C 215.93 576.22 216.58 578.55 218.69 579.41 C 218.39 582.13 220.18 584.35 221.99 586.14 C 222.22 588.63 223.60 590.74 225.38 592.43 C 225.40 594.90 226.82 596.44 229.35 595.10 C 228.81 595.52 227.72 596.36 227.18 596.78 C 228.58 598.22 229.26 600.12 229.99 601.97 C 230.54 601.74 231.64 601.28 232.19 601.05 C 231.85 602.35 231.53 603.66 231.20 604.98 C 232.39 604.96 233.59 604.95 234.80 604.93 L 234.62 604.37 C 235.16 604.63 236.25 605.15 236.79 605.41 C 236.53 603.80 235.63 602.91 234.08 602.75 C 234.74 599.99 232.91 597.58 230.85 596.00 C 230.63 594.80 230.36 593.62 230.03 592.46 C 228.99 592.57 227.95 592.68 226.92 592.81 C 227.42 592.50 228.41 591.90 228.91 591.60 C 227.72 589.54 227.25 585.50 223.94 586.66 C 224.34 586.26 225.15 585.45 225.56 585.05 C 224.36 583.13 223.66 580.51 221.22 579.84 C 221.38 579.45 221.71 578.67 221.88 578.28 C 220.97 576.55 219.80 574.99 218.60 573.46 C 217.59 569.80 214.84 566.99 213.79 563.34 C 213.35 563.60 212.46 564.13 212.02 564.39 C 211.82 564.20 211.41 563.81 211.21 563.62 C 211.78 563.57 212.94 563.48 213.51 563.44 C 211.90 561.44 211.62 556.19 208.10 557.67 C 211.42 556.93 208.26 554.02 207.61 552.30 C 205.87 549.78 205.35 546.25 202.64 544.56 C 202.69 544.21 202.78 543.50 202.83 543.14 C 184.25 508.95 166.50 474.28 148.13 439.97 M 613.23 523.17 C 613.12 526.52 616.29 521.84 613.23 523.17 M 610.20 529.36 C 608.51 532.24 613.53 529.64 610.20 529.36 M 607.28 536.23 C 607.76 536.76 607.76 536.76 607.28 536.23 M 603.97 539.12 C 602.47 542.10 607.32 539.18 603.97 539.12 M 597.19 552.11 C 597.26 555.44 600.18 550.62 597.19 552.11 M 594.24 555.09 C 592.40 557.89 597.56 555.52 594.24 555.09 M 594.24 558.20 C 592.44 561.02 597.55 558.61 594.24 558.20 M 591.11 561.38 C 589.49 564.31 594.44 561.58 591.11 561.38 M 591.32 565.23 C 591.82 565.74 591.82 565.74 591.32 565.23 M 588.20 568.29 C 588.69 568.81 588.69 568.81 588.20 568.29 M 581.19 580.96 C 581.21 584.30 584.20 579.50 581.19 580.96 M 578.30 584.24 C 578.80 584.73 578.80 584.73 578.30 584.24 M 575.08 587.06 C 573.43 590.02 578.36 587.33 575.08 587.06 M 578.27 587.37 C 578.76 587.86 578.76 587.86 578.27 587.37 M 575.08 590.17 C 573.52 593.21 578.33 590.38 575.08 590.17 M 571.36 593.23 C 570.83 594.89 571.37 595.44 572.97 594.90 C 573.48 593.22 572.95 592.67 571.36 593.23 M 568.42 597.01 C 568.58 600.28 571.44 595.46 568.42 597.01 M 571.47 596.95 C 571.54 600.26 574.52 595.49 571.47 596.95 M 568.29 600.16 C 568.55 603.39 571.32 598.55 568.29 600.16 M 565.06 603.04 C 564.56 604.67 565.12 605.20 566.75 604.62 C 567.24 602.97 566.68 602.44 565.06 603.04 M 568.14 603.15 C 568.04 606.49 571.20 601.78 568.14 603.15 M 233.38 606.22 C 233.64 606.47 233.64 606.47 233.38 606.22 M 233.78 606.97 C 234.26 607.33 235.23 608.05 235.71 608.41 C 234.00 610.04 235.92 611.88 236.39 613.54 C 237.03 613.69 238.30 613.99 238.94 614.14 C 238.68 615.06 238.41 616.00 238.14 616.94 C 239.21 618.19 240.30 617.74 241.25 616.56 C 243.48 617.93 242.22 619.49 240.05 619.57 C 240.80 620.03 241.55 620.50 242.29 620.99 C 242.78 620.80 243.76 620.40 244.24 620.21 C 244.78 620.34 245.85 620.61 246.38 620.75 C 245.72 619.57 244.31 619.43 243.20 618.97 C 243.47 617.63 243.53 616.25 243.01 614.97 C 242.47 615.37 241.40 616.17 240.86 616.57 C 240.52 616.20 239.84 615.45 239.50 615.08 C 241.54 613.69 240.23 611.29 239.63 609.49 C 238.83 609.40 237.24 609.22 236.45 609.13 C 237.52 608.11 238.50 605.30 236.03 605.39 C 235.47 605.79 234.34 606.57 233.78 606.97 M 562.07 606.20 C 561.49 607.85 562.01 608.41 563.64 607.86 C 564.19 606.20 563.67 605.65 562.07 606.20 M 565.07 606.14 C 564.53 607.79 565.07 608.35 566.68 607.81 C 567.20 606.16 566.67 605.60 565.07 606.14 M 561.94 609.26 C 561.33 610.88 561.86 611.44 563.52 610.96 C 564.09 609.35 563.56 608.78 561.94 609.26 M 559.27 613.19 C 559.71 613.67 559.71 613.67 559.27 613.19 M 562.27 613.24 C 562.76 613.79 562.76 613.79 562.27 613.24 M 556.27 616.40 C 556.78 616.88 556.78 616.88 556.27 616.40 M 559.27 616.32 C 559.74 616.80 559.74 616.80 559.27 616.32 M 555.35 618.99 C 554.81 620.59 555.36 621.16 556.99 620.70 C 557.53 619.07 556.98 618.50 555.35 618.99 M 242.06 622.01 C 241.55 623.61 242.11 624.20 243.74 623.76 C 244.25 622.14 243.69 621.55 242.06 622.01 M 245.07 622.08 C 244.51 623.71 245.05 624.29 246.67 623.80 C 247.22 622.16 246.69 621.59 245.07 622.08 M 552.22 622.10 C 551.66 623.70 552.20 624.27 553.85 623.82 C 554.40 622.19 553.86 621.62 552.22 622.10 M 555.28 622.08 C 554.69 623.70 555.21 624.26 556.85 623.75 C 557.44 622.11 556.92 621.55 555.28 622.08 M 245.05 625.24 C 244.51 626.85 245.06 627.42 246.70 626.93 C 247.23 625.31 246.67 624.74 245.05 625.24 M 247.96 625.51 C 247.61 626.93 248.12 627.45 249.49 627.06 C 249.81 625.63 249.30 625.12 247.96 625.51 M 550.21 625.22 C 548.85 625.89 548.82 626.56 550.11 627.23 C 551.45 626.54 551.49 625.87 550.21 625.22 M 552.21 625.26 C 551.67 626.88 552.23 627.42 553.87 626.90 C 554.38 625.27 553.83 624.72 552.21 625.26 M 245.25 628.13 C 244.81 629.77 245.38 630.38 246.96 629.96 C 247.40 628.30 246.83 627.69 245.25 628.13 M 248.19 628.05 C 248.08 629.97 248.06 631.90 248.27 633.82 C 248.71 633.63 249.59 633.24 250.03 633.04 C 249.61 631.33 250.89 628.08 248.19 628.05 M 549.08 628.42 C 548.56 630.03 549.12 630.58 550.77 630.04 C 551.26 628.43 550.69 627.88 549.08 628.42 M 549.02 631.57 C 548.50 633.25 549.04 633.76 550.66 633.10 C 551.14 631.43 550.60 630.92 549.02 631.57 M 251.21 631.80 C 250.69 633.38 251.25 633.96 252.88 633.52 C 253.42 631.90 252.86 631.33 251.21 631.80 M 546.01 632.10 C 546.08 635.44 549.02 630.61 546.01 632.10 M 249.26 635.25 C 249.74 635.79 249.74 635.79 249.26 635.25 M 251.29 635.00 C 250.77 636.58 251.32 637.14 252.96 636.68 C 253.50 635.06 252.94 634.50 251.29 635.00 M 543.19 635.18 C 541.69 638.25 546.48 635.24 543.19 635.18 M 545.98 635.01 C 545.43 636.64 545.97 637.19 547.61 636.67 C 548.14 635.04 547.60 634.48 545.98 635.01 M 251.32 638.09 C 250.78 639.70 251.32 640.28 252.94 639.84 C 253.49 638.20 252.95 637.62 251.32 638.09 M 255.04 638.20 C 253.48 641.21 258.33 638.41 255.04 638.20 M 543.05 638.18 C 541.54 641.24 546.33 638.32 543.05 638.18 M 255.01 641.40 C 253.44 644.40 258.31 641.60 255.01 641.40 M 539.39 641.23 C 538.86 642.88 539.40 643.45 540.99 642.92 C 541.50 641.25 540.97 640.68 539.39 641.23 M 542.47 641.18 C 541.90 642.83 542.42 643.39 544.03 642.85 C 544.58 641.18 544.06 640.62 542.47 641.18 M 258.25 642.19 C 258.74 642.71 258.74 642.71 258.25 642.19 M 255.13 644.48 C 253.60 647.49 258.43 644.65 255.13 644.48 M 258.04 644.55 C 257.57 645.96 258.05 646.42 259.46 645.95 C 259.91 644.55 259.43 644.08 258.04 644.55 M 537.22 644.28 C 535.85 644.92 535.81 645.59 537.10 646.28 C 538.45 645.62 538.49 644.96 537.22 644.28 M 539.35 644.41 C 538.81 646.03 539.36 646.58 541.00 646.06 C 541.52 644.44 540.97 643.89 539.35 644.41 M 257.98 648.12 C 258.06 651.46 260.99 646.65 257.98 648.12 M 261.08 648.13 C 261.25 651.43 264.09 646.58 261.08 648.13 M 536.33 648.14 C 536.53 651.42 539.35 646.57 536.33 648.14 M 258.28 651.14 C 258.60 654.49 261.12 649.41 258.28 651.14 M 261.09 651.03 C 260.52 652.62 261.07 653.16 262.73 652.66 C 263.30 651.06 262.75 650.51 261.09 651.03 M 533.06 651.00 C 532.56 652.62 533.12 653.15 534.75 652.61 C 535.25 650.97 534.68 650.44 533.06 651.00 M 536.15 651.01 C 535.60 652.38 536.05 652.85 537.49 652.42 C 538.04 651.03 537.59 650.56 536.15 651.01 M 261.05 654.13 C 260.53 655.79 261.08 656.34 262.69 655.78 C 263.20 654.12 262.65 653.57 261.05 654.13 M 264.19 654.14 C 263.64 655.75 264.19 656.30 265.83 655.79 C 266.37 654.16 265.83 653.61 264.19 654.14 M 530.01 654.13 C 529.44 655.77 529.97 656.33 531.61 655.81 C 532.16 654.18 531.62 653.62 530.01 654.13 M 533.09 654.14 C 532.57 655.78 533.12 656.33 534.75 655.78 C 535.25 654.14 534.70 653.59 533.09 654.14 M 264.22 657.30 C 263.65 658.90 264.19 659.44 265.85 658.94 C 266.41 657.33 265.87 656.78 264.22 657.30 M 529.93 657.22 C 529.44 658.88 529.99 659.44 531.59 658.90 C 532.06 657.25 531.51 656.69 529.93 657.22 M 267.31 657.92 C 267.46 661.24 270.31 656.42 267.31 657.92 M 527.30 658.24 C 527.80 658.74 527.80 658.74 527.30 658.24 M 264.29 660.32 C 263.78 661.95 264.33 662.51 265.96 662.02 C 266.45 660.38 265.90 659.82 264.29 660.32 M 527.01 660.55 C 525.54 663.57 530.36 660.62 527.01 660.55 M 530.01 660.36 C 528.48 663.35 533.34 660.44 530.01 660.36 M 267.47 660.96 C 267.55 664.27 270.52 659.49 267.47 660.96 M 267.47 664.12 C 267.56 667.42 270.51 662.61 267.47 664.12 M 271.25 664.29 C 271.71 664.79 271.71 664.79 271.25 664.29 M 523.49 664.13 C 523.69 667.46 526.46 662.52 523.49 664.13 M 527.25 664.31 C 527.72 664.77 527.72 664.77 527.25 664.31 M 268.33 667.24 C 268.76 667.82 268.76 667.82 268.33 667.24 M 271.06 667.07 C 269.39 670.03 274.35 667.34 271.06 667.07 M 274.04 667.29 C 272.47 670.21 277.39 667.46 274.04 667.29 M 520.28 667.12 C 519.79 668.77 520.34 669.29 521.95 668.70 C 522.44 667.03 521.89 666.50 520.28 667.12 M 523.32 667.01 C 522.83 668.61 523.40 669.16 525.03 668.65 C 525.52 667.02 524.95 666.47 523.32 667.01 M 271.05 670.18 C 269.50 673.24 274.30 670.37 271.05 670.18 M 274.21 670.21 C 272.64 673.25 277.46 670.42 274.21 670.21 M 520.19 670.13 C 519.69 671.75 520.26 672.30 521.89 671.77 C 522.37 670.13 521.81 669.58 520.19 670.13 M 273.93 673.24 C 273.39 674.91 273.92 675.47 275.52 674.91 C 276.03 673.24 275.50 672.68 273.93 673.24 M 277.01 673.26 C 276.55 674.92 277.12 675.46 278.72 674.88 C 279.15 673.21 278.58 672.68 277.01 673.26 M 517.10 673.23 C 516.58 674.86 517.14 675.41 518.77 674.90 C 519.26 673.26 518.70 672.71 517.10 673.23 M 520.12 673.16 C 519.51 674.80 520.02 675.36 521.65 674.83 C 522.26 673.18 521.75 672.62 520.12 673.16 M 274.15 676.40 C 273.69 677.78 274.16 678.29 275.58 677.94 C 276.03 676.55 275.55 676.04 274.15 676.40 M 277.04 676.48 C 276.55 678.10 277.13 678.62 278.77 678.03 C 279.23 676.41 278.66 675.89 277.04 676.48 M 514.04 676.51 C 513.55 677.90 514.03 678.38 515.46 677.96 C 515.92 676.57 515.45 676.09 514.04 676.51 M 517.07 676.45 C 516.56 678.06 517.13 678.60 518.78 678.07 C 519.26 676.45 518.68 675.91 517.07 676.45 M 280.30 677.22 C 280.77 677.78 280.77 677.78 280.30 677.22 M 277.13 680.14 C 277.26 683.41 280.20 678.64 277.13 680.14 M 280.30 680.15 C 280.44 683.45 283.32 678.60 280.30 680.15 M 511.14 679.95 C 509.59 682.93 514.47 680.10 511.14 679.95 M 514.03 680.11 C 514.11 683.46 517.04 678.63 514.03 680.11 M 280.15 683.02 C 279.63 684.62 280.19 685.16 281.84 684.64 C 282.37 683.03 281.81 682.49 280.15 683.02 M 283.29 683.05 C 282.78 684.67 283.33 685.23 284.93 684.72 C 285.45 683.06 284.91 682.50 283.29 683.05 M 508.09 683.31 C 506.58 686.29 511.43 683.39 508.09 683.31 M 511.05 683.07 C 509.55 686.08 514.38 683.16 511.05 683.07 M 514.24 683.32 C 514.79 683.78 514.79 683.78 514.24 683.32 M 280.48 686.09 C 280.02 687.47 280.49 687.98 281.90 687.61 C 282.35 686.20 281.88 685.70 280.48 686.09 M 283.32 686.19 C 282.85 687.84 283.41 688.38 285.00 687.81 C 285.47 686.13 284.91 685.59 283.32 686.19 M 507.34 686.12 C 506.80 687.74 507.34 688.32 508.96 687.85 C 509.49 686.19 508.95 685.62 507.34 686.12 M 510.49 686.08 C 509.92 687.70 510.44 688.24 512.07 687.72 C 512.65 686.07 512.13 685.52 510.49 686.08 M 283.35 689.25 C 282.80 690.89 283.33 691.44 284.95 690.91 C 285.49 689.25 284.96 688.70 283.35 689.25 M 287.03 689.42 C 285.56 692.48 290.31 689.51 287.03 689.42 M 504.23 689.26 C 503.67 690.86 504.21 691.42 505.87 690.92 C 506.41 689.29 505.86 688.74 504.23 689.26 M 507.37 689.26 C 506.84 690.87 507.38 691.42 509.02 690.93 C 509.55 689.29 509.00 688.73 507.37 689.26 M 287.07 692.56 C 285.37 695.44 290.40 692.86 287.07 692.56 M 290.01 692.56 C 289.56 693.97 290.04 694.43 291.44 693.96 C 291.88 692.55 291.40 692.09 290.01 692.56 M 501.08 692.51 C 500.62 694.12 501.21 694.62 502.86 694.01 C 503.29 692.39 502.70 691.89 501.08 692.51 M 504.19 692.45 C 503.67 694.04 504.24 694.58 505.90 694.05 C 506.39 692.44 505.82 691.91 504.19 692.45 M 287.24 696.29 C 287.76 696.80 287.76 696.80 287.24 696.29 M 289.99 696.13 C 290.10 699.48 292.97 694.61 289.99 696.13 M 293.16 696.11 C 291.49 699.00 296.48 696.42 293.16 696.11 M 498.20 696.03 C 497.65 697.41 498.10 697.88 499.53 697.44 C 500.07 696.04 499.63 695.57 498.20 696.03 M 501.13 696.11 C 501.24 699.40 504.19 694.63 501.13 696.11 M 290.00 699.07 C 289.51 700.46 289.98 700.94 291.39 700.49 C 291.87 699.08 291.40 698.61 290.00 699.07 M 293.05 699.06 C 292.57 700.69 293.14 701.21 294.76 700.62 C 295.24 698.97 294.67 698.45 293.05 699.06 M 497.97 699.00 C 497.39 700.61 497.92 701.17 499.57 700.69 C 500.13 699.06 499.60 698.50 497.97 699.00 M 501.03 699.16 C 501.09 702.49 504.05 697.69 501.03 699.16 M 293.08 702.12 C 292.54 703.76 293.08 704.31 294.70 703.78 C 295.23 702.13 294.69 701.58 293.08 702.12 M 296.21 702.16 C 295.66 703.78 296.21 704.33 297.84 703.80 C 298.38 702.16 297.83 701.61 296.21 702.16 M 494.60 702.10 C 494.01 703.71 494.53 704.31 496.14 703.88 C 496.72 702.23 496.21 701.63 494.60 702.10 M 497.96 702.07 C 497.37 703.73 497.88 704.30 499.49 703.79 C 500.06 702.14 499.55 701.56 497.96 702.07 M 296.23 705.29 C 295.64 706.88 296.17 707.43 297.85 706.95 C 298.42 705.35 297.88 704.79 296.23 705.29 M 299.33 705.29 C 298.80 706.92 299.34 707.47 300.95 706.93 C 301.48 705.26 300.94 704.71 299.33 705.29 M 491.38 705.22 C 490.85 706.87 491.38 707.43 492.98 706.92 C 493.50 705.25 492.97 704.68 491.38 705.22 M 495.06 705.40 C 493.55 708.44 498.35 705.55 495.06 705.40 M 296.26 708.33 C 295.80 709.95 296.38 710.50 297.99 709.98 C 298.44 708.34 297.86 707.79 296.26 708.33 M 300.18 708.27 C 298.87 708.94 298.87 709.62 300.19 710.29 C 301.49 709.59 301.49 708.92 300.18 708.27 M 488.20 708.44 C 487.65 710.03 488.21 710.56 489.89 710.06 C 490.42 708.46 489.86 707.93 488.20 708.44 M 491.36 708.38 C 490.80 709.98 491.34 710.55 492.98 710.07 C 493.52 708.44 492.98 707.88 491.36 708.38 M 303.12 709.29 C 303.62 709.78 303.62 709.78 303.12 709.29 M 299.50 712.09 C 299.56 715.40 302.55 710.63 299.50 712.09 M 303.26 712.29 C 303.72 712.79 303.72 712.79 303.26 712.29 M 306.27 712.40 C 306.78 712.84 306.78 712.84 306.27 712.40 M 485.09 711.82 C 484.58 713.43 485.14 713.98 486.76 713.46 C 487.27 711.83 486.72 711.28 485.09 711.82 M 488.14 711.85 C 487.67 713.44 488.25 713.97 489.88 713.43 C 490.37 711.81 489.79 711.28 488.14 711.85 M 303.06 715.05 C 301.52 718.05 306.38 715.20 303.06 715.05 M 306.18 715.08 C 304.76 718.14 309.50 715.12 306.18 715.08 M 309.05 715.05 C 308.56 716.68 309.13 717.20 310.75 716.63 C 311.24 714.99 310.68 714.47 309.05 715.05 M 482.00 715.08 C 481.52 716.47 481.99 716.95 483.41 716.53 C 483.87 715.13 483.40 714.64 482.00 715.08 M 485.05 715.02 C 484.57 716.63 485.15 717.16 486.77 716.59 C 487.25 714.95 486.68 714.43 485.05 715.02 M 488.21 715.24 C 488.80 715.66 488.80 715.66 488.21 715.24 M 306.23 718.11 C 306.41 721.47 309.14 716.51 306.23 718.11 M 309.05 718.14 C 308.55 719.80 309.09 720.35 310.69 719.79 C 311.19 718.12 310.64 717.57 309.05 718.14 M 312.19 718.17 C 311.69 719.79 312.25 720.33 313.87 719.77 C 314.37 718.13 313.81 717.59 312.19 718.17 M 315.25 718.27 C 314.79 719.90 315.36 720.44 316.97 719.91 C 317.42 718.25 316.84 717.70 315.25 718.27 M 479.04 718.21 C 477.53 721.30 482.29 718.34 479.04 718.21 M 481.98 718.13 C 481.41 719.78 481.93 720.35 483.56 719.83 C 484.10 718.19 483.58 717.62 481.98 718.13 M 485.32 718.27 C 485.86 718.75 485.86 718.75 485.32 718.27 M 315.35 721.26 C 314.78 722.88 315.31 723.43 316.95 722.92 C 317.51 721.27 316.98 720.72 315.35 721.26 M 319.04 721.41 C 317.53 724.46 322.32 721.54 319.04 721.41 M 321.93 721.28 C 321.41 722.94 321.95 723.49 323.56 722.92 C 324.06 721.27 323.51 720.72 321.93 721.28 M 475.36 721.25 C 474.80 722.89 475.33 723.45 476.95 722.92 C 477.49 721.25 476.96 720.70 475.36 721.25 M 479.04 721.41 C 477.53 724.46 482.32 721.55 479.04 721.41 M 469.05 724.46 C 468.54 726.08 469.11 726.62 470.75 726.05 C 471.23 724.43 470.66 723.90 469.05 724.46 M 325.12 724.96 C 325.32 728.24 328.13 723.37 325.12 724.96 M 328.33 724.98 C 328.42 728.24 331.43 723.50 328.33 724.98 M 331.47 725.01 C 331.66 728.31 334.46 723.44 331.47 725.01 M 466.52 725.36 C 465.92 726.64 465.88 727.92 466.40 729.18 C 468.13 729.43 468.06 724.01 466.52 725.36 M 472.30 725.00 C 472.47 728.25 475.36 723.45 472.30 725.00 M 475.48 724.96 C 475.57 728.27 478.52 723.48 475.48 724.96 M 341.14 728.04 C 341.29 731.31 344.20 726.54 341.14 728.04 M 344.31 728.14 C 344.52 731.39 347.35 726.58 344.31 728.14 M 347.40 728.08 C 347.05 729.48 347.56 729.93 348.95 729.45 C 349.30 728.02 348.79 727.57 347.40 728.08 M 453.13 728.18 C 453.21 731.46 456.21 726.73 453.13 728.18 M 456.31 728.14 C 456.47 731.38 459.38 726.61 456.31 728.14 M 459.46 728.15 C 459.66 731.44 462.45 726.55 459.46 728.15 M 463.25 728.29 C 463.71 728.79 463.71 728.79 463.25 728.29 M 469.44 728.26 C 469.95 728.74 469.95 728.74 469.44 728.26 M 424.36 731.19 C 424.31 734.55 427.38 729.79 424.36 731.19 M 428.21 731.35 C 428.64 731.91 428.64 731.91 428.21 731.35 M 431.28 731.31 C 431.81 731.80 431.81 731.80 431.28 731.31 M 434.33 731.28 C 434.80 731.82 434.80 731.82 434.33 731.28 M 437.15 731.10 C 436.66 732.47 437.14 732.95 438.56 732.55 C 439.05 731.16 438.57 730.68 437.15 731.10 M 440.32 731.28 C 440.58 734.58 443.26 729.62 440.32 731.28 M 444.14 731.29 C 444.63 731.80 444.63 731.80 444.14 731.29 M 447.25 731.24 C 447.71 731.78 447.71 731.78 447.25 731.24 Z" />
<path fill="#000000" opacity="1.00" d=" M 215.27 570.02 C 215.75 570.53 215.75 570.53 215.27 570.02 Z" />
<path fill="#000000" opacity="1.00" d=" M 218.24 576.26 C 218.78 576.75 218.78 576.75 218.24 576.26 Z" />
<path fill="#000000" opacity="1.00" d=" M 225.18 589.26 C 225.74 589.73 225.74 589.73 225.18 589.26 Z" />
<path fill="#000000" opacity="1.00" d=" M 231.04 598.22 C 234.36 598.53 229.34 601.13 231.04 598.22 Z" />
<path fill="#000000" opacity="1.00" d=" M 236.88 610.95 C 238.51 610.41 239.10 610.95 238.64 612.57 C 237.00 613.09 236.41 612.55 236.88 610.95 Z" />
</g>
<g id="#d1090eff">
<path fill="#d1090e" opacity="1.00" d=" M 136.68 90.80 C 137.17 88.99 137.86 87.25 138.66 85.56 C 141.57 96.15 147.44 106.02 155.94 113.07 C 165.32 120.67 177.05 124.32 187.83 129.38 C 187.65 133.47 186.98 137.52 185.83 141.46 C 184.81 144.79 184.99 148.84 182.07 151.25 C 171.69 147.19 161.10 143.04 149.92 141.86 C 145.02 141.05 141.14 144.84 138.62 148.55 C 133.40 156.43 130.90 165.71 128.81 174.83 C 122.88 203.52 122.79 233.06 124.09 262.21 C 125.73 302.11 133.27 341.84 147.57 379.16 C 159.24 409.60 172.98 439.74 193.44 465.38 C 193.49 471.06 194.68 476.65 194.66 482.34 C 179.13 461.39 167.35 437.92 157.25 413.95 C 143.89 381.57 133.05 348.03 126.65 313.55 C 117.53 264.96 116.28 215.00 121.91 165.92 C 124.89 140.55 129.55 115.34 136.68 90.80 Z" />
<path fill="#d1090e" opacity="1.00" d=" M 687.54 116.83 C 692.84 141.85 695.06 167.44 696.20 192.96 C 696.68 210.16 696.76 227.40 695.36 244.56 C 692.32 240.47 693.13 235.23 691.83 230.58 C 693.01 214.04 694.68 197.43 693.53 180.83 C 693.06 177.65 692.97 173.88 690.52 171.51 C 685.69 169.49 680.22 170.45 675.15 170.69 C 651.99 173.29 629.54 180.34 608.05 189.16 C 602.10 191.70 596.19 194.33 590.39 197.19 C 589.82 190.27 589.65 183.25 588.31 176.42 C 607.02 166.48 626.81 158.78 646.74 151.68 C 658.68 147.52 670.45 141.64 678.96 132.04 C 682.90 127.69 685.88 122.48 687.54 116.83 Z" />
<path fill="#d1090e" opacity="1.00" d=" M 204.80 136.87 C 206.49 137.64 208.19 138.38 209.91 139.09 L 209.65 139.56 C 206.03 146.09 205.37 153.75 202.06 160.42 C 200.70 159.73 199.34 159.06 197.98 158.40 C 199.30 150.98 201.73 143.75 204.80 136.87 Z" />
<path fill="#d1090e" opacity="1.00" d=" M 211.23 139.67 C 218.23 143.40 225.40 146.82 232.29 150.77 C 229.83 158.16 226.79 165.36 224.90 172.93 C 218.14 168.88 211.25 165.06 204.22 161.51 C 207.43 154.56 209.35 147.08 211.23 139.67 Z" />
<path fill="#d1090e" opacity="1.00" d=" M 144.29 151.26 C 148.51 148.94 153.53 149.63 158.06 150.47 C 166.45 152.17 174.49 155.22 182.40 158.46 C 181.55 163.36 180.87 168.31 179.37 173.07 C 170.83 170.14 162.11 167.67 153.20 166.13 C 144.93 182.48 140.56 200.51 137.79 218.53 C 131.31 263.33 136.94 309.07 148.66 352.53 C 147.68 357.97 149.92 364.09 146.80 368.99 C 134.83 333.38 126.72 296.22 125.65 258.57 C 124.97 232.95 127.57 207.37 131.71 182.11 C 132.99 174.90 134.31 167.64 136.86 160.75 C 138.28 156.95 140.51 153.12 144.29 151.26 Z" />
<path fill="#d1090e" opacity="1.00" d=" M 237.20 153.54 C 237.60 153.82 238.41 154.36 238.81 154.64 C 236.87 162.27 233.66 169.53 231.89 177.23 C 230.98 176.65 230.08 176.08 229.17 175.52 C 231.97 168.24 233.78 160.59 237.20 153.54 Z" />
<path fill="#d1090e" opacity="1.00" d=" M 196.01 164.52 C 205.44 169.01 214.64 173.99 223.70 179.20 C 221.52 182.85 220.62 187.03 219.62 191.11 C 210.73 186.17 201.56 181.74 192.15 177.89 C 193.07 173.34 194.11 168.78 196.01 164.52 Z" />
<path fill="#d1090e" opacity="1.00" d=" M 664.55 179.20 C 669.26 178.79 674.32 178.25 678.80 180.13 C 682.90 182.94 683.25 188.48 684.03 192.97 C 685.31 205.58 685.35 218.29 685.13 230.95 C 683.86 275.53 677.25 320.03 664.71 362.85 C 661.54 373.84 657.15 384.40 652.95 395.02 C 640.06 421.85 624.25 447.68 603.02 468.76 C 602.35 463.08 605.44 457.93 605.80 452.34 C 628.70 428.37 643.98 398.29 655.43 367.47 C 670.69 326.58 680.53 282.80 677.46 238.95 C 676.17 223.26 673.56 207.40 667.16 192.90 C 640.23 196.62 614.22 205.62 589.88 217.59 C 590.27 213.39 590.49 209.17 590.27 204.96 C 597.08 201.40 604.03 198.11 611.11 195.11 C 628.27 187.95 646.01 181.53 664.55 179.20 Z" />
<path fill="#d1090e" opacity="1.00" d=" M 227.98 181.73 C 228.88 182.27 229.79 182.81 230.70 183.36 C 228.76 187.06 227.70 191.12 226.65 195.14 C 225.76 194.60 224.86 194.08 223.97 193.57 C 225.30 189.62 226.53 185.64 227.98 181.73 Z" />
<path fill="#d1090e" opacity="1.00" d=" M 689.28 255.25 C 689.83 248.69 690.65 242.16 691.30 235.61 C 692.61 242.01 694.09 248.52 693.19 255.09 C 692.22 255.13 690.26 255.21 689.28 255.25 Z" />
<path fill="#d1090e" opacity="1.00" d=" M 679.72 316.14 C 684.17 296.15 686.80 275.83 689.26 255.53 C 691.46 259.21 692.13 263.48 693.22 267.56 C 689.72 304.06 680.15 339.89 667.09 374.14 C 655.19 405.14 640.54 435.25 621.57 462.57 C 610.56 478.25 598.07 493.12 582.98 505.03 C 566.98 517.89 546.62 527.04 525.71 524.76 C 525.73 523.28 525.73 521.74 526.50 520.41 C 529.10 515.12 531.90 509.93 534.30 504.54 C 546.58 505.45 559.03 503.20 570.28 498.21 C 584.59 491.97 596.87 481.85 607.40 470.46 C 620.55 456.07 631.13 439.53 640.11 422.28 C 644.54 413.28 649.39 404.41 652.95 395.02 C 655.79 390.62 657.37 385.56 659.55 380.83 C 668.24 359.95 674.93 338.24 679.72 316.14 Z" />
<path fill="#d1090e" opacity="1.00" d=" M 150.12 378.46 C 150.60 374.38 150.24 369.93 152.73 366.42 C 153.70 369.43 154.65 372.44 155.61 375.46 C 152.66 379.47 155.40 384.25 153.95 388.59 C 152.58 385.24 151.25 381.89 150.12 378.46 Z" />
<path fill="#d1090e" opacity="1.00" d=" M 156.43 389.03 C 159.52 394.29 161.37 400.17 164.54 405.39 C 172.26 420.61 181.03 435.29 190.60 449.42 C 193.00 452.92 192.73 457.32 192.71 461.36 C 177.16 439.72 164.90 415.84 154.94 391.17 C 155.31 390.64 156.06 389.56 156.43 389.03 Z" />
<path fill="#d1090e" opacity="1.00" d=" M 592.99 466.98 C 596.63 464.06 599.37 460.14 603.31 457.58 C 602.55 462.23 601.00 466.71 600.35 471.39 C 585.25 485.69 567.04 498.30 545.99 501.19 C 545.56 501.01 544.69 500.63 544.26 500.44 C 545.26 497.71 546.49 495.08 547.68 492.43 C 564.97 488.74 579.77 478.27 592.99 466.98 Z" />
<path fill="#d1090e" opacity="1.00" d=" M 198.35 460.78 C 202.18 464.17 203.19 469.35 202.82 474.25 C 200.97 472.02 199.03 469.86 197.34 467.50 C 198.16 465.36 198.20 463.04 198.35 460.78 Z" />
<path fill="#d1090e" opacity="1.00" d=" M 199.35 472.56 C 201.09 474.57 202.90 476.53 204.67 478.54 C 203.31 484.39 205.95 490.28 205.80 496.22 C 203.94 494.14 202.05 492.08 200.38 489.85 C 201.48 484.08 199.22 478.36 199.35 472.56 Z" />
<path fill="#d1090e" opacity="1.00" d=" M 209.33 483.31 C 210.28 484.28 211.28 485.22 212.27 486.18 C 211.67 492.40 214.17 498.37 213.65 504.59 C 212.78 503.70 211.71 502.94 211.07 501.88 C 210.93 495.63 208.77 489.59 209.33 483.31 Z" />
</g>
<g id="#f50118ff">
<path fill="#f50118" opacity="1.00" d=" M 185.83 141.46 C 186.98 137.52 187.65 133.47 187.83 129.38 C 193.52 131.81 199.18 134.29 204.80 136.87 C 201.73 143.75 199.30 150.98 197.98 158.40 C 195.00 156.96 192.00 155.57 188.99 154.20 C 186.70 153.18 184.40 152.19 182.07 151.25 C 184.99 148.84 184.81 144.79 185.83 141.46 Z" />
<path fill="#f50118" opacity="1.00" d=" M 202.06 160.42 C 205.37 153.75 206.03 146.09 209.65 139.56 L 211.23 139.67 C 209.35 147.08 207.43 154.56 204.22 161.51 C 203.68 161.24 202.60 160.69 202.06 160.42 Z" />
<path fill="#f50118" opacity="1.00" d=" M 232.29 150.77 C 233.91 151.72 235.54 152.66 237.20 153.54 C 233.78 160.59 231.97 168.24 229.17 175.52 C 227.75 174.65 226.32 173.78 224.90 172.93 C 226.79 165.36 229.83 158.16 232.29 150.77 Z" />
<path fill="#f50118" opacity="1.00" d=" M 231.89 177.23 C 233.66 169.53 236.87 162.27 238.81 154.64 C 268.87 172.21 295.51 195.81 315.98 224.02 C 332.46 246.70 344.85 272.11 354.72 298.27 C 365.05 325.84 372.46 354.47 377.39 383.48 C 379.13 394.56 380.96 405.69 381.50 416.89 C 376.94 429.97 371.13 442.61 365.04 455.05 C 356.37 472.40 346.51 489.26 334.36 504.41 C 326.01 514.72 316.50 524.37 304.98 531.11 C 297.14 535.71 288.16 538.70 279.00 538.58 C 272.55 538.59 266.29 536.74 260.23 534.72 C 242.55 528.65 226.72 517.85 213.65 504.59 C 214.17 498.37 211.67 492.40 212.27 486.18 C 220.12 493.63 228.67 500.40 238.04 505.84 C 248.08 511.56 259.26 516.05 270.96 516.17 C 286.77 516.07 301.71 508.73 313.49 498.54 C 327.12 486.83 337.59 471.89 346.31 456.29 C 353.62 443.06 359.74 429.17 364.69 414.90 C 366.37 410.37 364.82 405.53 364.55 400.90 C 361.46 374.61 355.84 348.61 347.57 323.46 C 337.69 293.56 323.81 264.64 303.98 240.01 C 283.88 215.05 258.91 194.32 231.89 177.23 Z" />
<path fill="#f50118" opacity="1.00" d=" M 182.40 158.46 C 183.59 158.96 184.78 159.46 185.97 159.97 C 189.35 161.41 192.69 162.93 196.01 164.52 C 194.11 168.78 193.07 173.34 192.15 177.89 C 187.93 176.17 183.67 174.55 179.37 173.07 C 180.87 168.31 181.55 163.36 182.40 158.46 Z" />
<path fill="#f50118" opacity="1.00" d=" M 522.85 218.77 C 543.38 202.79 565.24 188.47 588.31 176.42 C 589.65 183.25 589.82 190.27 590.39 197.19 C 560.25 211.96 532.44 231.97 510.25 257.26 C 499.78 269.11 491.00 282.32 482.81 295.82 C 467.13 321.87 454.46 349.96 447.38 379.60 C 445.05 389.61 443.31 399.79 442.85 410.07 C 442.68 412.31 443.48 414.44 444.29 416.48 C 450.80 432.76 459.04 448.40 469.41 462.56 C 477.82 474.00 487.76 484.50 499.66 492.34 C 509.98 499.14 521.92 503.67 534.30 504.54 C 531.90 509.93 529.10 515.12 526.50 520.41 C 525.73 521.74 525.73 523.28 525.71 524.76 C 510.64 523.16 496.42 516.64 484.57 507.34 C 470.30 496.24 458.91 481.87 449.34 466.63 C 439.65 451.02 431.72 434.33 425.48 417.06 C 424.46 414.83 425.27 412.41 425.60 410.13 C 432.03 374.25 442.73 339.07 458.06 305.98 C 473.52 273.04 494.20 241.69 522.85 218.77 Z" />
<path fill="#f50118" opacity="1.00" d=" M 219.62 191.11 C 220.62 187.03 221.52 182.85 223.70 179.20 C 225.12 180.04 226.55 180.88 227.98 181.73 C 226.53 185.64 225.30 189.62 223.97 193.57 C 222.52 192.74 221.07 191.92 219.62 191.11 Z" />
<path fill="#f50118" opacity="1.00" d=" M 226.65 195.14 C 227.70 191.12 228.76 187.06 230.70 183.36 C 246.40 192.93 261.68 203.32 275.59 215.39 C 289.53 227.32 300.54 242.24 310.33 257.64 C 333.77 295.43 348.18 338.18 357.22 381.53 C 359.01 391.26 361.26 401.00 361.85 410.88 C 359.69 418.84 356.22 426.42 352.99 434.00 C 344.59 452.54 334.40 470.52 320.73 485.71 C 310.35 497.19 297.45 507.16 282.22 511.01 C 269.48 514.35 255.73 512.65 243.82 507.23 C 227.61 499.94 214.25 487.63 202.82 474.25 C 203.19 469.35 202.18 464.17 198.35 460.78 C 198.20 463.04 198.16 465.36 197.34 467.50 C 195.77 465.46 194.20 463.44 192.71 461.36 C 192.73 457.32 193.00 452.92 190.60 449.42 C 181.03 435.29 172.26 420.61 164.54 405.39 C 161.37 400.17 159.52 394.29 156.43 389.03 C 156.06 389.56 155.31 390.64 154.94 391.17 C 154.61 390.31 154.27 389.44 153.95 388.59 C 155.40 384.25 152.66 379.47 155.61 375.46 C 163.89 400.67 175.57 424.97 191.85 446.03 C 204.95 462.95 220.96 477.88 239.74 488.31 C 248.59 493.04 258.01 497.29 268.10 498.32 C 282.26 498.72 295.86 492.42 306.47 483.36 C 321.33 470.67 331.75 453.67 340.17 436.25 C 346.16 423.26 351.62 409.90 355.08 396.02 C 352.45 377.60 347.63 359.52 342.24 341.72 C 332.22 310.23 318.99 278.97 297.43 253.53 C 276.92 230.70 253.06 210.81 226.65 195.14 Z" />
<path fill="#f50118" opacity="1.00" d=" M 510.43 264.51 C 532.94 239.79 560.72 220.35 590.27 204.96 C 590.49 209.17 590.27 213.39 589.88 217.59 C 565.54 229.74 542.89 245.32 523.05 263.93 C 496.62 288.91 477.23 320.75 464.86 354.81 C 458.93 371.07 454.49 387.89 451.98 405.02 C 450.96 409.23 453.74 412.94 455.19 416.69 C 463.79 435.29 474.95 453.03 489.89 467.20 C 500.28 477.07 513.01 484.89 527.15 487.85 C 538.13 489.95 549.44 487.63 559.81 483.90 C 577.45 477.36 592.84 465.82 605.80 452.34 C 605.44 457.93 602.35 463.08 603.02 468.76 C 602.13 469.64 601.24 470.52 600.35 471.39 C 601.00 466.71 602.55 462.23 603.31 457.58 C 599.37 460.14 596.63 464.06 592.99 466.98 C 579.77 478.27 564.97 488.74 547.68 492.43 C 546.49 495.08 545.26 497.71 544.26 500.44 C 544.69 500.63 545.56 501.01 545.99 501.19 C 530.72 503.38 515.02 499.11 502.19 490.76 C 488.99 482.28 478.30 470.44 469.33 457.68 C 460.14 444.52 452.64 430.22 446.59 415.36 C 444.32 410.78 446.14 405.65 446.51 400.85 C 453.92 350.49 476.39 302.38 510.43 264.51 Z" />
<path fill="#f50118" opacity="1.00" d=" M 691.83 230.58 C 693.13 235.23 692.32 240.47 695.36 244.56 C 694.96 252.24 694.52 259.96 693.22 267.56 C 692.13 263.48 691.46 259.21 689.26 255.53 L 689.28 255.25 C 690.26 255.21 692.22 255.13 693.19 255.09 C 694.09 248.52 692.61 242.01 691.30 235.61 C 691.44 233.93 691.63 232.25 691.83 230.58 Z" />
<path fill="#f50118" opacity="1.00" d=" M 148.66 352.53 C 150.01 357.16 151.36 361.79 152.73 366.42 C 150.24 369.93 150.60 374.38 150.12 378.46 C 148.95 375.32 147.83 372.17 146.80 368.99 C 149.92 364.09 147.68 357.97 148.66 352.53 Z" />
<path fill="#f50118" opacity="1.00" d=" M 193.44 465.38 C 195.37 467.80 197.35 470.18 199.35 472.56 C 199.22 478.36 201.48 484.08 200.38 489.85 C 198.38 487.41 196.47 484.91 194.66 482.34 C 194.68 476.65 193.49 471.06 193.44 465.38 Z" />
<path fill="#f50118" opacity="1.00" d=" M 205.80 496.22 C 205.95 490.28 203.31 484.39 204.67 478.54 C 206.23 480.11 207.76 481.73 209.33 483.31 C 208.77 489.59 210.93 495.63 211.07 501.88 C 209.15 500.14 207.42 498.22 205.80 496.22 Z" />
</g>
<g id="#242196ff">
<path fill="#242196" opacity="1.00" d=" M 138.62 148.55 C 141.14 144.84 145.02 141.05 149.92 141.86 C 161.10 143.04 171.69 147.19 182.07 151.25 C 184.40 152.19 186.70 153.18 188.99 154.20 C 187.33 155.74 186.26 157.72 185.97 159.97 C 184.78 159.46 183.59 158.96 182.40 158.46 C 174.49 155.22 166.45 152.17 158.06 150.47 C 153.53 149.63 148.51 148.94 144.29 151.26 C 140.51 153.12 138.28 156.95 136.86 160.75 C 134.31 167.64 132.99 174.90 131.71 182.11 C 127.57 207.37 124.97 232.95 125.65 258.57 C 125.14 259.79 124.59 260.99 124.09 262.21 C 122.79 233.06 122.88 203.52 128.81 174.83 C 130.90 165.71 133.40 156.43 138.62 148.55 Z" />
<path fill="#242196" opacity="1.00" d=" M 608.05 189.16 C 629.54 180.34 651.99 173.29 675.15 170.69 C 680.22 170.45 685.69 169.49 690.52 171.51 C 692.97 173.88 693.06 177.65 693.53 180.83 C 694.68 197.43 693.01 214.04 691.83 230.58 C 691.63 232.25 691.44 233.93 691.30 235.61 C 690.65 242.16 689.83 248.69 689.28 255.25 L 689.26 255.53 C 686.80 275.83 684.17 296.15 679.72 316.14 C 674.93 338.24 668.24 359.95 659.55 380.83 C 657.37 385.56 655.79 390.62 652.95 395.02 C 657.15 384.40 661.54 373.84 664.71 362.85 C 677.25 320.03 683.86 275.53 685.13 230.95 C 685.35 218.29 685.31 205.58 684.03 192.97 C 683.25 188.48 682.90 182.94 678.80 180.13 C 674.32 178.25 669.26 178.79 664.55 179.20 C 646.01 181.53 628.27 187.95 611.11 195.11 C 610.14 193.10 609.12 191.11 608.05 189.16 Z" />
<path fill="#242196" opacity="1.00" d=" M 613.23 523.17 C 616.29 521.84 613.12 526.52 613.23 523.17 Z" />
<path fill="#242196" opacity="1.00" d=" M 610.20 529.36 C 613.53 529.64 608.51 532.24 610.20 529.36 Z" />
<path fill="#242196" opacity="1.00" d=" M 607.28 536.23 C 607.76 536.76 607.76 536.76 607.28 536.23 Z" />
<path fill="#242196" opacity="1.00" d=" M 603.97 539.12 C 607.32 539.18 602.47 542.10 603.97 539.12 Z" />
<path fill="#242196" opacity="1.00" d=" M 199.23 541.24 C 199.72 541.75 199.72 541.75 199.23 541.24 Z" />
<path fill="#242196" opacity="1.00" d=" M 202.32 547.33 C 202.82 547.85 202.82 547.85 202.32 547.33 Z" />
<path fill="#242196" opacity="1.00" d=" M 597.19 552.11 C 600.18 550.62 597.26 555.44 597.19 552.11 Z" />
<path fill="#242196" opacity="1.00" d=" M 594.24 555.09 C 597.56 555.52 592.40 557.89 594.24 555.09 Z" />
<path fill="#242196" opacity="1.00" d=" M 594.24 558.20 C 597.55 558.61 592.44 561.02 594.24 558.20 Z" />
<path fill="#242196" opacity="1.00" d=" M 591.11 561.38 C 594.44 561.58 589.49 564.31 591.11 561.38 Z" />
<path fill="#242196" opacity="1.00" d=" M 591.32 565.23 C 591.82 565.74 591.82 565.74 591.32 565.23 Z" />
<path fill="#242196" opacity="1.00" d=" M 588.20 568.29 C 588.69 568.81 588.69 568.81 588.20 568.29 Z" />
<path fill="#242196" opacity="1.00" d=" M 581.19 580.96 C 584.20 579.50 581.21 584.30 581.19 580.96 Z" />
<path fill="#242196" opacity="1.00" d=" M 221.14 582.16 C 222.77 581.62 223.32 582.16 222.79 583.80 C 221.15 584.33 220.60 583.78 221.14 582.16 Z" />
<path fill="#242196" opacity="1.00" d=" M 578.30 584.24 C 578.80 584.73 578.80 584.73 578.30 584.24 Z" />
<path fill="#242196" opacity="1.00" d=" M 575.08 587.06 C 578.36 587.33 573.43 590.02 575.08 587.06 Z" />
<path fill="#242196" opacity="1.00" d=" M 578.27 587.37 C 578.76 587.86 578.76 587.86 578.27 587.37 Z" />
<path fill="#242196" opacity="1.00" d=" M 575.08 590.17 C 578.33 590.38 573.52 593.21 575.08 590.17 Z" />
<path fill="#242196" opacity="1.00" d=" M 571.36 593.23 C 572.95 592.67 573.48 593.22 572.97 594.90 C 571.37 595.44 570.83 594.89 571.36 593.23 Z" />
<path fill="#242196" opacity="1.00" d=" M 568.42 597.01 C 571.44 595.46 568.58 600.28 568.42 597.01 Z" />
<path fill="#242196" opacity="1.00" d=" M 571.47 596.95 C 574.52 595.49 571.54 600.26 571.47 596.95 Z" />
<path fill="#242196" opacity="1.00" d=" M 568.29 600.16 C 571.32 598.55 568.55 603.39 568.29 600.16 Z" />
<path fill="#242196" opacity="1.00" d=" M 565.06 603.04 C 566.68 602.44 567.24 602.97 566.75 604.62 C 565.12 605.20 564.56 604.67 565.06 603.04 Z" />
<path fill="#242196" opacity="1.00" d=" M 568.14 603.15 C 571.20 601.78 568.04 606.49 568.14 603.15 Z" />
<path fill="#242196" opacity="1.00" d=" M 562.07 606.20 C 563.67 605.65 564.19 606.20 563.64 607.86 C 562.01 608.41 561.49 607.85 562.07 606.20 Z" />
<path fill="#242196" opacity="1.00" d=" M 565.07 606.14 C 566.67 605.60 567.20 606.16 566.68 607.81 C 565.07 608.35 564.53 607.79 565.07 606.14 Z" />
<path fill="#242196" opacity="1.00" d=" M 556.27 616.40 C 556.78 616.88 556.78 616.88 556.27 616.40 Z" />
<path fill="#242196" opacity="1.00" d=" M 242.06 622.01 C 243.69 621.55 244.25 622.14 243.74 623.76 C 242.11 624.20 241.55 623.61 242.06 622.01 Z" />
<path fill="#242196" opacity="1.00" d=" M 552.22 622.10 C 553.86 621.62 554.40 622.19 553.85 623.82 C 552.20 624.27 551.66 623.70 552.22 622.10 Z" />
<path fill="#242196" opacity="1.00" d=" M 555.28 622.08 C 556.92 621.55 557.44 622.11 556.85 623.75 C 555.21 624.26 554.69 623.70 555.28 622.08 Z" />
<path fill="#242196" opacity="1.00" d=" M 550.21 625.22 C 551.49 625.87 551.45 626.54 550.11 627.23 C 548.82 626.56 548.85 625.89 550.21 625.22 Z" />
<path fill="#242196" opacity="1.00" d=" M 552.21 625.26 C 553.83 624.72 554.38 625.27 553.87 626.90 C 552.23 627.42 551.67 626.88 552.21 625.26 Z" />
<path fill="#242196" opacity="1.00" d=" M 245.25 628.13 C 246.83 627.69 247.40 628.30 246.96 629.96 C 245.38 630.38 244.81 629.77 245.25 628.13 Z" />
<path fill="#242196" opacity="1.00" d=" M 249.26 635.25 C 249.74 635.79 249.74 635.79 249.26 635.25 Z" />
<path fill="#242196" opacity="1.00" d=" M 543.19 635.18 C 546.48 635.24 541.69 638.25 543.19 635.18 Z" />
<path fill="#242196" opacity="1.00" d=" M 251.32 638.09 C 252.95 637.62 253.49 638.20 252.94 639.84 C 251.32 640.28 250.78 639.70 251.32 638.09 Z" />
<path fill="#242196" opacity="1.00" d=" M 542.47 641.18 C 544.06 640.62 544.58 641.18 544.03 642.85 C 542.42 643.39 541.90 642.83 542.47 641.18 Z" />
<path fill="#242196" opacity="1.00" d=" M 258.25 642.19 C 258.74 642.71 258.74 642.71 258.25 642.19 Z" />
<path fill="#242196" opacity="1.00" d=" M 255.13 644.48 C 258.43 644.65 253.60 647.49 255.13 644.48 Z" />
<path fill="#242196" opacity="1.00" d=" M 537.22 644.28 C 538.49 644.96 538.45 645.62 537.10 646.28 C 535.81 645.59 535.85 644.92 537.22 644.28 Z" />
<path fill="#242196" opacity="1.00" d=" M 261.08 648.13 C 264.09 646.58 261.25 651.43 261.08 648.13 Z" />
<path fill="#242196" opacity="1.00" d=" M 258.28 651.14 C 261.12 649.41 258.60 654.49 258.28 651.14 Z" />
<path fill="#242196" opacity="1.00" d=" M 261.09 651.03 C 262.75 650.51 263.30 651.06 262.73 652.66 C 261.07 653.16 260.52 652.62 261.09 651.03 Z" />
<path fill="#242196" opacity="1.00" d=" M 536.15 651.01 C 537.59 650.56 538.04 651.03 537.49 652.42 C 536.05 652.85 535.60 652.38 536.15 651.01 Z" />
<path fill="#242196" opacity="1.00" d=" M 261.05 654.13 C 262.65 653.57 263.20 654.12 262.69 655.78 C 261.08 656.34 260.53 655.79 261.05 654.13 Z" />
<path fill="#242196" opacity="1.00" d=" M 264.19 654.14 C 265.83 653.61 266.37 654.16 265.83 655.79 C 264.19 656.30 263.64 655.75 264.19 654.14 Z" />
<path fill="#242196" opacity="1.00" d=" M 530.01 654.13 C 531.62 653.62 532.16 654.18 531.61 655.81 C 529.97 656.33 529.44 655.77 530.01 654.13 Z" />
<path fill="#242196" opacity="1.00" d=" M 533.09 654.14 C 534.70 653.59 535.25 654.14 534.75 655.78 C 533.12 656.33 532.57 655.78 533.09 654.14 Z" />
<path fill="#242196" opacity="1.00" d=" M 264.22 657.30 C 265.87 656.78 266.41 657.33 265.85 658.94 C 264.19 659.44 263.65 658.90 264.22 657.30 Z" />
<path fill="#242196" opacity="1.00" d=" M 267.31 657.92 C 270.31 656.42 267.46 661.24 267.31 657.92 Z" />
<path fill="#242196" opacity="1.00" d=" M 527.30 658.24 C 527.80 658.74 527.80 658.74 527.30 658.24 Z" />
<path fill="#242196" opacity="1.00" d=" M 264.29 660.32 C 265.90 659.82 266.45 660.38 265.96 662.02 C 264.33 662.51 263.78 661.95 264.29 660.32 Z" />
<path fill="#242196" opacity="1.00" d=" M 530.01 660.36 C 533.34 660.44 528.48 663.35 530.01 660.36 Z" />
<path fill="#242196" opacity="1.00" d=" M 267.47 660.96 C 270.52 659.49 267.55 664.27 267.47 660.96 Z" />
<path fill="#242196" opacity="1.00" d=" M 267.47 664.12 C 270.51 662.61 267.56 667.42 267.47 664.12 Z" />
<path fill="#242196" opacity="1.00" d=" M 268.33 667.24 C 268.76 667.82 268.76 667.82 268.33 667.24 Z" />
<path fill="#242196" opacity="1.00" d=" M 271.06 667.07 C 274.35 667.34 269.39 670.03 271.06 667.07 Z" />
<path fill="#242196" opacity="1.00" d=" M 274.04 667.29 C 277.39 667.46 272.47 670.21 274.04 667.29 Z" />
<path fill="#242196" opacity="1.00" d=" M 520.28 667.12 C 521.89 666.50 522.44 667.03 521.95 668.70 C 520.34 669.29 519.79 668.77 520.28 667.12 Z" />
<path fill="#242196" opacity="1.00" d=" M 271.05 670.18 C 274.30 670.37 269.50 673.24 271.05 670.18 Z" />
<path fill="#242196" opacity="1.00" d=" M 274.21 670.21 C 277.46 670.42 272.64 673.25 274.21 670.21 Z" />
<path fill="#242196" opacity="1.00" d=" M 520.19 670.13 C 521.81 669.58 522.37 670.13 521.89 671.77 C 520.26 672.30 519.69 671.75 520.19 670.13 Z" />
<path fill="#242196" opacity="1.00" d=" M 277.01 673.26 C 278.58 672.68 279.15 673.21 278.72 674.88 C 277.12 675.46 276.55 674.92 277.01 673.26 Z" />
<path fill="#242196" opacity="1.00" d=" M 517.10 673.23 C 518.70 672.71 519.26 673.26 518.77 674.90 C 517.14 675.41 516.58 674.86 517.10 673.23 Z" />
<path fill="#242196" opacity="1.00" d=" M 520.12 673.16 C 521.75 672.62 522.26 673.18 521.65 674.83 C 520.02 675.36 519.51 674.80 520.12 673.16 Z" />
<path fill="#242196" opacity="1.00" d=" M 274.15 676.40 C 275.55 676.04 276.03 676.55 275.58 677.94 C 274.16 678.29 273.69 677.78 274.15 676.40 Z" />
<path fill="#242196" opacity="1.00" d=" M 280.30 677.22 C 280.77 677.78 280.77 677.78 280.30 677.22 Z" />
<path fill="#242196" opacity="1.00" d=" M 277.13 680.14 C 280.20 678.64 277.26 683.41 277.13 680.14 Z" />
<path fill="#242196" opacity="1.00" d=" M 280.15 683.02 C 281.81 682.49 282.37 683.03 281.84 684.64 C 280.19 685.16 279.63 684.62 280.15 683.02 Z" />
<path fill="#242196" opacity="1.00" d=" M 283.29 683.05 C 284.91 682.50 285.45 683.06 284.93 684.72 C 283.33 685.23 282.78 684.67 283.29 683.05 Z" />
<path fill="#242196" opacity="1.00" d=" M 508.09 683.31 C 511.43 683.39 506.58 686.29 508.09 683.31 Z" />
<path fill="#242196" opacity="1.00" d=" M 514.24 683.32 C 514.79 683.78 514.79 683.78 514.24 683.32 Z" />
<path fill="#242196" opacity="1.00" d=" M 280.48 686.09 C 281.88 685.70 282.35 686.20 281.90 687.61 C 280.49 687.98 280.02 687.47 280.48 686.09 Z" />
<path fill="#242196" opacity="1.00" d=" M 283.32 686.19 C 284.91 685.59 285.47 686.13 285.00 687.81 C 283.41 688.38 282.85 687.84 283.32 686.19 Z" />
<path fill="#242196" opacity="1.00" d=" M 507.34 686.12 C 508.95 685.62 509.49 686.19 508.96 687.85 C 507.34 688.32 506.80 687.74 507.34 686.12 Z" />
<path fill="#242196" opacity="1.00" d=" M 283.35 689.25 C 284.96 688.70 285.49 689.25 284.95 690.91 C 283.33 691.44 282.80 690.89 283.35 689.25 Z" />
<path fill="#242196" opacity="1.00" d=" M 287.03 689.42 C 290.31 689.51 285.56 692.48 287.03 689.42 Z" />
<path fill="#242196" opacity="1.00" d=" M 504.23 689.26 C 505.86 688.74 506.41 689.29 505.87 690.92 C 504.21 691.42 503.67 690.86 504.23 689.26 Z" />
<path fill="#242196" opacity="1.00" d=" M 293.16 696.11 C 296.48 696.42 291.49 699.00 293.16 696.11 Z" />
<path fill="#242196" opacity="1.00" d=" M 498.20 696.03 C 499.63 695.57 500.07 696.04 499.53 697.44 C 498.10 697.88 497.65 697.41 498.20 696.03 Z" />
<path fill="#242196" opacity="1.00" d=" M 293.05 699.06 C 294.67 698.45 295.24 698.97 294.76 700.62 C 293.14 701.21 292.57 700.69 293.05 699.06 Z" />
<path fill="#242196" opacity="1.00" d=" M 501.03 699.16 C 504.05 697.69 501.09 702.49 501.03 699.16 Z" />
<path fill="#242196" opacity="1.00" d=" M 293.08 702.12 C 294.69 701.58 295.23 702.13 294.70 703.78 C 293.08 704.31 292.54 703.76 293.08 702.12 Z" />
<path fill="#242196" opacity="1.00" d=" M 296.21 702.16 C 297.83 701.61 298.38 702.16 297.84 703.80 C 296.21 704.33 295.66 703.78 296.21 702.16 Z" />
<path fill="#242196" opacity="1.00" d=" M 296.23 705.29 C 297.88 704.79 298.42 705.35 297.85 706.95 C 296.17 707.43 295.64 706.88 296.23 705.29 Z" />
<path fill="#242196" opacity="1.00" d=" M 299.33 705.29 C 300.94 704.71 301.48 705.26 300.95 706.93 C 299.34 707.47 298.80 706.92 299.33 705.29 Z" />
<path fill="#242196" opacity="1.00" d=" M 296.26 708.33 C 297.86 707.79 298.44 708.34 297.99 709.98 C 296.38 710.50 295.80 709.95 296.26 708.33 Z" />
<path fill="#242196" opacity="1.00" d=" M 299.50 712.09 C 302.55 710.63 299.56 715.40 299.50 712.09 Z" />
<path fill="#242196" opacity="1.00" d=" M 306.27 712.40 C 306.78 712.84 306.78 712.84 306.27 712.40 Z" />
<path fill="#242196" opacity="1.00" d=" M 303.06 715.05 C 306.38 715.20 301.52 718.05 303.06 715.05 Z" />
<path fill="#242196" opacity="1.00" d=" M 306.18 715.08 C 309.50 715.12 304.76 718.14 306.18 715.08 Z" />
<path fill="#242196" opacity="1.00" d=" M 309.05 715.05 C 310.68 714.47 311.24 714.99 310.75 716.63 C 309.13 717.20 308.56 716.68 309.05 715.05 Z" />
<path fill="#242196" opacity="1.00" d=" M 488.21 715.24 C 488.80 715.66 488.80 715.66 488.21 715.24 Z" />
<path fill="#242196" opacity="1.00" d=" M 306.23 718.11 C 309.14 716.51 306.41 721.47 306.23 718.11 Z" />
<path fill="#242196" opacity="1.00" d=" M 309.05 718.14 C 310.64 717.57 311.19 718.12 310.69 719.79 C 309.09 720.35 308.55 719.80 309.05 718.14 Z" />
<path fill="#242196" opacity="1.00" d=" M 312.19 718.17 C 313.81 717.59 314.37 718.13 313.87 719.77 C 312.25 720.33 311.69 719.79 312.19 718.17 Z" />
<path fill="#242196" opacity="1.00" d=" M 315.25 718.27 C 316.84 717.70 317.42 718.25 316.97 719.91 C 315.36 720.44 314.79 719.90 315.25 718.27 Z" />
<path fill="#242196" opacity="1.00" d=" M 479.04 718.21 C 482.29 718.34 477.53 721.30 479.04 718.21 Z" />
<path fill="#242196" opacity="1.00" d=" M 481.98 718.13 C 483.58 717.62 484.10 718.19 483.56 719.83 C 481.93 720.35 481.41 719.78 481.98 718.13 Z" />
<path fill="#242196" opacity="1.00" d=" M 485.32 718.27 C 485.86 718.75 485.86 718.75 485.32 718.27 Z" />
<path fill="#242196" opacity="1.00" d=" M 315.35 721.26 C 316.98 720.72 317.51 721.27 316.95 722.92 C 315.31 723.43 314.78 722.88 315.35 721.26 Z" />
<path fill="#242196" opacity="1.00" d=" M 319.04 721.41 C 322.32 721.54 317.53 724.46 319.04 721.41 Z" />
<path fill="#242196" opacity="1.00" d=" M 475.36 721.25 C 476.96 720.70 477.49 721.25 476.95 722.92 C 475.33 723.45 474.80 722.89 475.36 721.25 Z" />
<path fill="#242196" opacity="1.00" d=" M 479.04 721.41 C 482.32 721.55 477.53 724.46 479.04 721.41 Z" />
<path fill="#242196" opacity="1.00" d=" M 325.12 724.96 C 328.13 723.37 325.32 728.24 325.12 724.96 Z" />
<path fill="#242196" opacity="1.00" d=" M 328.33 724.98 C 331.43 723.50 328.42 728.24 328.33 724.98 Z" />
<path fill="#242196" opacity="1.00" d=" M 331.47 725.01 C 334.46 723.44 331.66 728.31 331.47 725.01 Z" />
<path fill="#242196" opacity="1.00" d=" M 472.30 725.00 C 475.36 723.45 472.47 728.25 472.30 725.00 Z" />
<path fill="#242196" opacity="1.00" d=" M 475.48 724.96 C 478.52 723.48 475.57 728.27 475.48 724.96 Z" />
<path fill="#242196" opacity="1.00" d=" M 341.14 728.04 C 344.20 726.54 341.29 731.31 341.14 728.04 Z" />
<path fill="#242196" opacity="1.00" d=" M 344.31 728.14 C 347.35 726.58 344.52 731.39 344.31 728.14 Z" />
<path fill="#242196" opacity="1.00" d=" M 347.40 728.08 C 348.79 727.57 349.30 728.02 348.95 729.45 C 347.56 729.93 347.05 729.48 347.40 728.08 Z" />
<path fill="#242196" opacity="1.00" d=" M 453.13 728.18 C 456.21 726.73 453.21 731.46 453.13 728.18 Z" />
<path fill="#242196" opacity="1.00" d=" M 456.31 728.14 C 459.38 726.61 456.47 731.38 456.31 728.14 Z" />
<path fill="#242196" opacity="1.00" d=" M 459.46 728.15 C 462.45 726.55 459.66 731.44 459.46 728.15 Z" />
<path fill="#242196" opacity="1.00" d=" M 469.44 728.26 C 469.95 728.74 469.95 728.74 469.44 728.26 Z" />
<path fill="#242196" opacity="1.00" d=" M 424.36 731.19 C 427.38 729.79 424.31 734.55 424.36 731.19 Z" />
<path fill="#242196" opacity="1.00" d=" M 428.21 731.35 C 428.64 731.91 428.64 731.91 428.21 731.35 Z" />
<path fill="#242196" opacity="1.00" d=" M 431.28 731.31 C 431.81 731.80 431.81 731.80 431.28 731.31 Z" />
<path fill="#242196" opacity="1.00" d=" M 434.33 731.28 C 434.80 731.82 434.80 731.82 434.33 731.28 Z" />
<path fill="#242196" opacity="1.00" d=" M 437.15 731.10 C 438.57 730.68 439.05 731.16 438.56 732.55 C 437.14 732.95 436.66 732.47 437.15 731.10 Z" />
<path fill="#242196" opacity="1.00" d=" M 440.32 731.28 C 443.26 729.62 440.58 734.58 440.32 731.28 Z" />
<path fill="#242196" opacity="1.00" d=" M 444.14 731.29 C 444.63 731.80 444.63 731.80 444.14 731.29 Z" />
<path fill="#242196" opacity="1.00" d=" M 447.25 731.24 C 447.71 731.78 447.71 731.78 447.25 731.24 Z" />
</g>
<g id="#322cc8ff">
<path fill="#322cc8" opacity="1.00" d=" M 185.97 159.97 C 186.26 157.72 187.33 155.74 188.99 154.20 C 192.00 155.57 195.00 156.96 197.98 158.40 C 199.34 159.06 200.70 159.73 202.06 160.42 C 202.60 160.69 203.68 161.24 204.22 161.51 C 211.25 165.06 218.14 168.88 224.90 172.93 C 226.32 173.78 227.75 174.65 229.17 175.52 C 230.08 176.08 230.98 176.65 231.89 177.23 C 258.91 194.32 283.88 215.05 303.98 240.01 C 323.81 264.64 337.69 293.56 347.57 323.46 C 355.84 348.61 361.46 374.61 364.55 400.90 C 364.82 405.53 366.37 410.37 364.69 414.90 C 359.74 429.17 353.62 443.06 346.31 456.29 C 337.59 471.89 327.12 486.83 313.49 498.54 C 301.71 508.73 286.77 516.07 270.96 516.17 C 259.26 516.05 248.08 511.56 238.04 505.84 C 228.67 500.40 220.12 493.63 212.27 486.18 C 211.28 485.22 210.28 484.28 209.33 483.31 C 207.76 481.73 206.23 480.11 204.67 478.54 C 202.90 476.53 201.09 474.57 199.35 472.56 C 197.35 470.18 195.37 467.80 193.44 465.38 C 172.98 439.74 159.24 409.60 147.57 379.16 C 133.27 341.84 125.73 302.11 124.09 262.21 C 124.59 260.99 125.14 259.79 125.65 258.57 C 126.72 296.22 134.83 333.38 146.80 368.99 C 147.83 372.17 148.95 375.32 150.12 378.46 C 151.25 381.89 152.58 385.24 153.95 388.59 C 154.27 389.44 154.61 390.31 154.94 391.17 C 164.90 415.84 177.16 439.72 192.71 461.36 C 194.20 463.44 195.77 465.46 197.34 467.50 C 199.03 469.86 200.97 472.02 202.82 474.25 C 214.25 487.63 227.61 499.94 243.82 507.23 C 255.73 512.65 269.48 514.35 282.22 511.01 C 297.45 507.16 310.35 497.19 320.73 485.71 C 334.40 470.52 344.59 452.54 352.99 434.00 C 356.22 426.42 359.69 418.84 361.85 410.88 C 361.26 401.00 359.01 391.26 357.22 381.53 C 348.18 338.18 333.77 295.43 310.33 257.64 C 300.54 242.24 289.53 227.32 275.59 215.39 C 261.68 203.32 246.40 192.93 230.70 183.36 C 229.79 182.81 228.88 182.27 227.98 181.73 C 226.55 180.88 225.12 180.04 223.70 179.20 C 214.64 173.99 205.44 169.01 196.01 164.52 C 192.69 162.93 189.35 161.41 185.97 159.97 Z" />
<path fill="#322cc8" opacity="1.00" d=" M 590.39 197.19 C 596.19 194.33 602.10 191.70 608.05 189.16 C 609.12 191.11 610.14 193.10 611.11 195.11 C 604.03 198.11 597.08 201.40 590.27 204.96 C 560.72 220.35 532.94 239.79 510.43 264.51 C 476.39 302.38 453.92 350.49 446.51 400.85 C 446.14 405.65 444.32 410.78 446.59 415.36 C 452.64 430.22 460.14 444.52 469.33 457.68 C 478.30 470.44 488.99 482.28 502.19 490.76 C 515.02 499.11 530.72 503.38 545.99 501.19 C 567.04 498.30 585.25 485.69 600.35 471.39 C 601.24 470.52 602.13 469.64 603.02 468.76 C 624.25 447.68 640.06 421.85 652.95 395.02 C 649.39 404.41 644.54 413.28 640.11 422.28 C 631.13 439.53 620.55 456.07 607.40 470.46 C 596.87 481.85 584.59 491.97 570.28 498.21 C 559.03 503.20 546.58 505.45 534.30 504.54 C 521.92 503.67 509.98 499.14 499.66 492.34 C 487.76 484.50 477.82 474.00 469.41 462.56 C 459.04 448.40 450.80 432.76 444.29 416.48 C 443.48 414.44 442.68 412.31 442.85 410.07 C 443.31 399.79 445.05 389.61 447.38 379.60 C 454.46 349.96 467.13 321.87 482.81 295.82 C 491.00 282.32 499.78 269.11 510.25 257.26 C 532.44 231.97 560.25 211.96 590.39 197.19 Z" />
<path fill="#322cc8" opacity="1.00" d=" M 148.13 439.97 C 166.50 474.28 184.25 508.95 202.83 543.14 C 202.78 543.50 202.69 544.21 202.64 544.56 C 205.35 546.25 205.87 549.78 207.61 552.30 C 208.26 554.02 211.42 556.93 208.10 557.67 C 211.62 556.19 211.90 561.44 213.51 563.44 C 212.94 563.48 211.78 563.57 211.21 563.62 C 211.41 563.81 211.82 564.20 212.02 564.39 C 212.46 564.13 213.35 563.60 213.79 563.34 C 214.84 566.99 217.59 569.80 218.60 573.46 C 219.80 574.99 220.97 576.55 221.88 578.28 C 221.71 578.67 221.38 579.45 221.22 579.84 C 223.66 580.51 224.36 583.13 225.56 585.05 C 225.15 585.45 224.34 586.26 223.94 586.66 C 227.25 585.50 227.72 589.54 228.91 591.60 C 228.41 591.90 227.42 592.50 226.92 592.81 C 227.95 592.68 228.99 592.57 230.03 592.46 C 230.36 593.62 230.63 594.80 230.85 596.00 C 232.91 597.58 234.74 599.99 234.08 602.75 C 235.63 602.91 236.53 603.80 236.79 605.41 C 236.25 605.15 235.16 604.63 234.62 604.37 L 234.80 604.93 C 233.59 604.95 232.39 604.96 231.20 604.98 C 231.53 603.66 231.85 602.35 232.19 601.05 C 231.64 601.28 230.54 601.74 229.99 601.97 C 229.26 600.12 228.58 598.22 227.18 596.78 C 227.72 596.36 228.81 595.52 229.35 595.10 C 226.82 596.44 225.40 594.90 225.38 592.43 C 223.60 590.74 222.22 588.63 221.99 586.14 C 220.18 584.35 218.39 582.13 218.69 579.41 C 216.58 578.55 215.93 576.22 214.89 574.42 C 215.21 574.13 215.86 573.54 216.18 573.24 C 213.12 573.92 212.98 569.90 211.57 568.10 C 212.00 567.59 212.86 566.59 213.29 566.09 C 212.75 566.48 211.66 567.28 211.12 567.68 C 210.07 565.33 208.94 563.04 207.66 560.82 C 208.28 560.74 209.51 560.58 210.12 560.50 C 209.40 560.51 207.97 560.54 207.25 560.55 C 206.46 558.97 206.41 556.61 204.37 556.02 C 205.12 555.54 205.89 555.08 206.66 554.64 C 206.33 552.81 204.82 553.47 203.76 554.30 C 203.30 552.26 202.37 550.41 201.33 548.63 C 191.19 528.99 181.33 509.21 171.63 489.34 C 163.79 472.89 155.29 456.73 148.13 439.97 M 199.23 541.24 C 199.72 541.75 199.72 541.75 199.23 541.24 M 202.32 547.33 C 202.82 547.85 202.82 547.85 202.32 547.33 M 215.27 570.02 C 215.75 570.53 215.75 570.53 215.27 570.02 M 218.24 576.26 C 218.78 576.75 218.78 576.75 218.24 576.26 M 221.14 582.16 C 220.60 583.78 221.15 584.33 222.79 583.80 C 223.32 582.16 222.77 581.62 221.14 582.16 M 225.18 589.26 C 225.74 589.73 225.74 589.73 225.18 589.26 M 231.04 598.22 C 229.34 601.13 234.36 598.53 231.04 598.22 Z" />
<path fill="#322cc8" opacity="1.00" d=" M 233.38 606.22 C 233.64 606.47 233.64 606.47 233.38 606.22 Z" />
<path fill="#322cc8" opacity="1.00" d=" M 233.78 606.97 C 234.34 606.57 235.47 605.79 236.03 605.39 C 238.50 605.30 237.52 608.11 236.45 609.13 C 237.24 609.22 238.83 609.40 239.63 609.49 C 240.23 611.29 241.54 613.69 239.50 615.08 C 239.84 615.45 240.52 616.20 240.86 616.57 C 241.40 616.17 242.47 615.37 243.01 614.97 C 243.53 616.25 243.47 617.63 243.20 618.97 C 244.31 619.43 245.72 619.57 246.38 620.75 C 245.85 620.61 244.78 620.34 244.24 620.21 C 243.76 620.40 242.78 620.80 242.29 620.99 C 241.55 620.50 240.80 620.03 240.05 619.57 C 242.22 619.49 243.48 617.93 241.25 616.56 C 240.30 617.74 239.21 618.19 238.14 616.94 C 238.41 616.00 238.68 615.06 238.94 614.14 C 238.30 613.99 237.03 613.69 236.39 613.54 C 235.92 611.88 234.00 610.04 235.71 608.41 C 235.23 608.05 234.26 607.33 233.78 606.97 M 236.88 610.95 C 236.41 612.55 237.00 613.09 238.64 612.57 C 239.10 610.95 238.51 610.41 236.88 610.95 Z" />
<path fill="#322cc8" opacity="1.00" d=" M 561.94 609.26 C 563.56 608.78 564.09 609.35 563.52 610.96 C 561.86 611.44 561.33 610.88 561.94 609.26 Z" />
<path fill="#322cc8" opacity="1.00" d=" M 559.27 613.19 C 559.71 613.67 559.71 613.67 559.27 613.19 Z" />
<path fill="#322cc8" opacity="1.00" d=" M 562.27 613.24 C 562.76 613.79 562.76 613.79 562.27 613.24 Z" />
<path fill="#322cc8" opacity="1.00" d=" M 559.27 616.32 C 559.74 616.80 559.74 616.80 559.27 616.32 Z" />
<path fill="#322cc8" opacity="1.00" d=" M 555.35 618.99 C 556.98 618.50 557.53 619.07 556.99 620.70 C 555.36 621.16 554.81 620.59 555.35 618.99 Z" />
<path fill="#322cc8" opacity="1.00" d=" M 245.07 622.08 C 246.69 621.59 247.22 622.16 246.67 623.80 C 245.05 624.29 244.51 623.71 245.07 622.08 Z" />
<path fill="#322cc8" opacity="1.00" d=" M 245.05 625.24 C 246.67 624.74 247.23 625.31 246.70 626.93 C 245.06 627.42 244.51 626.85 245.05 625.24 Z" />
<path fill="#322cc8" opacity="1.00" d=" M 247.96 625.51 C 249.30 625.12 249.81 625.63 249.49 627.06 C 248.12 627.45 247.61 626.93 247.96 625.51 Z" />
<path fill="#322cc8" opacity="1.00" d=" M 248.19 628.05 C 250.89 628.08 249.61 631.33 250.03 633.04 C 249.59 633.24 248.71 633.63 248.27 633.82 C 248.06 631.90 248.08 629.97 248.19 628.05 Z" />
<path fill="#322cc8" opacity="1.00" d=" M 549.08 628.42 C 550.69 627.88 551.26 628.43 550.77 630.04 C 549.12 630.58 548.56 630.03 549.08 628.42 Z" />
<path fill="#322cc8" opacity="1.00" d=" M 549.02 631.57 C 550.60 630.92 551.14 631.43 550.66 633.10 C 549.04 633.76 548.50 633.25 549.02 631.57 Z" />
<path fill="#322cc8" opacity="1.00" d=" M 251.21 631.80 C 252.86 631.33 253.42 631.90 252.88 633.52 C 251.25 633.96 250.69 633.38 251.21 631.80 Z" />
<path fill="#322cc8" opacity="1.00" d=" M 546.01 632.10 C 549.02 630.61 546.08 635.44 546.01 632.10 Z" />
<path fill="#322cc8" opacity="1.00" d=" M 251.29 635.00 C 252.94 634.50 253.50 635.06 252.96 636.68 C 251.32 637.14 250.77 636.58 251.29 635.00 Z" />
<path fill="#322cc8" opacity="1.00" d=" M 545.98 635.01 C 547.60 634.48 548.14 635.04 547.61 636.67 C 545.97 637.19 545.43 636.64 545.98 635.01 Z" />
<path fill="#322cc8" opacity="1.00" d=" M 255.04 638.20 C 258.33 638.41 253.48 641.21 255.04 638.20 Z" />
<path fill="#322cc8" opacity="1.00" d=" M 543.05 638.18 C 546.33 638.32 541.54 641.24 543.05 638.18 Z" />
<path fill="#322cc8" opacity="1.00" d=" M 255.01 641.40 C 258.31 641.60 253.44 644.40 255.01 641.40 Z" />
<path fill="#322cc8" opacity="1.00" d=" M 539.39 641.23 C 540.97 640.68 541.50 641.25 540.99 642.92 C 539.40 643.45 538.86 642.88 539.39 641.23 Z" />
<path fill="#322cc8" opacity="1.00" d=" M 258.04 644.55 C 259.43 644.08 259.91 644.55 259.46 645.95 C 258.05 646.42 257.57 645.96 258.04 644.55 Z" />
<path fill="#322cc8" opacity="1.00" d=" M 539.35 644.41 C 540.97 643.89 541.52 644.44 541.00 646.06 C 539.36 646.58 538.81 646.03 539.35 644.41 Z" />
<path fill="#322cc8" opacity="1.00" d=" M 257.98 648.12 C 260.99 646.65 258.06 651.46 257.98 648.12 Z" />
<path fill="#322cc8" opacity="1.00" d=" M 536.33 648.14 C 539.35 646.57 536.53 651.42 536.33 648.14 Z" />
<path fill="#322cc8" opacity="1.00" d=" M 533.06 651.00 C 534.68 650.44 535.25 650.97 534.75 652.61 C 533.12 653.15 532.56 652.62 533.06 651.00 Z" />
<path fill="#322cc8" opacity="1.00" d=" M 529.93 657.22 C 531.51 656.69 532.06 657.25 531.59 658.90 C 529.99 659.44 529.44 658.88 529.93 657.22 Z" />
<path fill="#322cc8" opacity="1.00" d=" M 527.01 660.55 C 530.36 660.62 525.54 663.57 527.01 660.55 Z" />
<path fill="#322cc8" opacity="1.00" d=" M 271.25 664.29 C 271.71 664.79 271.71 664.79 271.25 664.29 Z" />
<path fill="#322cc8" opacity="1.00" d=" M 523.49 664.13 C 526.46 662.52 523.69 667.46 523.49 664.13 Z" />
<path fill="#322cc8" opacity="1.00" d=" M 527.25 664.31 C 527.72 664.77 527.72 664.77 527.25 664.31 Z" />
<path fill="#322cc8" opacity="1.00" d=" M 523.32 667.01 C 524.95 666.47 525.52 667.02 525.03 668.65 C 523.40 669.16 522.83 668.61 523.32 667.01 Z" />
<path fill="#322cc8" opacity="1.00" d=" M 273.93 673.24 C 275.50 672.68 276.03 673.24 275.52 674.91 C 273.92 675.47 273.39 674.91 273.93 673.24 Z" />
<path fill="#322cc8" opacity="1.00" d=" M 277.04 676.48 C 278.66 675.89 279.23 676.41 278.77 678.03 C 277.13 678.62 276.55 678.10 277.04 676.48 Z" />
<path fill="#322cc8" opacity="1.00" d=" M 514.04 676.51 C 515.45 676.09 515.92 676.57 515.46 677.96 C 514.03 678.38 513.55 677.90 514.04 676.51 Z" />
<path fill="#322cc8" opacity="1.00" d=" M 517.07 676.45 C 518.68 675.91 519.26 676.45 518.78 678.07 C 517.13 678.60 516.56 678.06 517.07 676.45 Z" />
<path fill="#322cc8" opacity="1.00" d=" M 280.30 680.15 C 283.32 678.60 280.44 683.45 280.30 680.15 Z" />
<path fill="#322cc8" opacity="1.00" d=" M 511.14 679.95 C 514.47 680.10 509.59 682.93 511.14 679.95 Z" />
<path fill="#322cc8" opacity="1.00" d=" M 514.03 680.11 C 517.04 678.63 514.11 683.46 514.03 680.11 Z" />
<path fill="#322cc8" opacity="1.00" d=" M 511.05 683.07 C 514.38 683.16 509.55 686.08 511.05 683.07 Z" />
<path fill="#322cc8" opacity="1.00" d=" M 510.49 686.08 C 512.13 685.52 512.65 686.07 512.07 687.72 C 510.44 688.24 509.92 687.70 510.49 686.08 Z" />
<path fill="#322cc8" opacity="1.00" d=" M 507.37 689.26 C 509.00 688.73 509.55 689.29 509.02 690.93 C 507.38 691.42 506.84 690.87 507.37 689.26 Z" />
<path fill="#322cc8" opacity="1.00" d=" M 287.07 692.56 C 290.40 692.86 285.37 695.44 287.07 692.56 Z" />
<path fill="#322cc8" opacity="1.00" d=" M 290.01 692.56 C 291.40 692.09 291.88 692.55 291.44 693.96 C 290.04 694.43 289.56 693.97 290.01 692.56 Z" />
<path fill="#322cc8" opacity="1.00" d=" M 501.08 692.51 C 502.70 691.89 503.29 692.39 502.86 694.01 C 501.21 694.62 500.62 694.12 501.08 692.51 Z" />
<path fill="#322cc8" opacity="1.00" d=" M 504.19 692.45 C 505.82 691.91 506.39 692.44 505.90 694.05 C 504.24 694.58 503.67 694.04 504.19 692.45 Z" />
<path fill="#322cc8" opacity="1.00" d=" M 287.24 696.29 C 287.76 696.80 287.76 696.80 287.24 696.29 Z" />
<path fill="#322cc8" opacity="1.00" d=" M 289.99 696.13 C 292.97 694.61 290.10 699.48 289.99 696.13 Z" />
<path fill="#322cc8" opacity="1.00" d=" M 501.13 696.11 C 504.19 694.63 501.24 699.40 501.13 696.11 Z" />
<path fill="#322cc8" opacity="1.00" d=" M 290.00 699.07 C 291.40 698.61 291.87 699.08 291.39 700.49 C 289.98 700.94 289.51 700.46 290.00 699.07 Z" />
<path fill="#322cc8" opacity="1.00" d=" M 497.97 699.00 C 499.60 698.50 500.13 699.06 499.57 700.69 C 497.92 701.17 497.39 700.61 497.97 699.00 Z" />
<path fill="#322cc8" opacity="1.00" d=" M 494.60 702.10 C 496.21 701.63 496.72 702.23 496.14 703.88 C 494.53 704.31 494.01 703.71 494.60 702.10 Z" />
<path fill="#322cc8" opacity="1.00" d=" M 497.96 702.07 C 499.55 701.56 500.06 702.14 499.49 703.79 C 497.88 704.30 497.37 703.73 497.96 702.07 Z" />
<path fill="#322cc8" opacity="1.00" d=" M 491.38 705.22 C 492.97 704.68 493.50 705.25 492.98 706.92 C 491.38 707.43 490.85 706.87 491.38 705.22 Z" />
<path fill="#322cc8" opacity="1.00" d=" M 495.06 705.40 C 498.35 705.55 493.55 708.44 495.06 705.40 Z" />
<path fill="#322cc8" opacity="1.00" d=" M 300.18 708.27 C 301.49 708.92 301.49 709.59 300.19 710.29 C 298.87 709.62 298.87 708.94 300.18 708.27 Z" />
<path fill="#322cc8" opacity="1.00" d=" M 488.20 708.44 C 489.86 707.93 490.42 708.46 489.89 710.06 C 488.21 710.56 487.65 710.03 488.20 708.44 Z" />
<path fill="#322cc8" opacity="1.00" d=" M 491.36 708.38 C 492.98 707.88 493.52 708.44 492.98 710.07 C 491.34 710.55 490.80 709.98 491.36 708.38 Z" />
<path fill="#322cc8" opacity="1.00" d=" M 303.12 709.29 C 303.62 709.78 303.62 709.78 303.12 709.29 Z" />
<path fill="#322cc8" opacity="1.00" d=" M 303.26 712.29 C 303.72 712.79 303.72 712.79 303.26 712.29 Z" />
<path fill="#322cc8" opacity="1.00" d=" M 485.09 711.82 C 486.72 711.28 487.27 711.83 486.76 713.46 C 485.14 713.98 484.58 713.43 485.09 711.82 Z" />
<path fill="#322cc8" opacity="1.00" d=" M 488.14 711.85 C 489.79 711.28 490.37 711.81 489.88 713.43 C 488.25 713.97 487.67 713.44 488.14 711.85 Z" />
<path fill="#322cc8" opacity="1.00" d=" M 482.00 715.08 C 483.40 714.64 483.87 715.13 483.41 716.53 C 481.99 716.95 481.52 716.47 482.00 715.08 Z" />
<path fill="#322cc8" opacity="1.00" d=" M 485.05 715.02 C 486.68 714.43 487.25 714.95 486.77 716.59 C 485.15 717.16 484.57 716.63 485.05 715.02 Z" />
<path fill="#322cc8" opacity="1.00" d=" M 321.93 721.28 C 323.51 720.72 324.06 721.27 323.56 722.92 C 321.95 723.49 321.41 722.94 321.93 721.28 Z" />
<path fill="#322cc8" opacity="1.00" d=" M 469.05 724.46 C 470.66 723.90 471.23 724.43 470.75 726.05 C 469.11 726.62 468.54 726.08 469.05 724.46 Z" />
<path fill="#322cc8" opacity="1.00" d=" M 466.52 725.36 C 468.06 724.01 468.13 729.43 466.40 729.18 C 465.88 727.92 465.92 726.64 466.52 725.36 Z" />
<path fill="#322cc8" opacity="1.00" d=" M 463.25 728.29 C 463.71 728.79 463.71 728.79 463.25 728.29 Z" />
</g>
<g id="#cad2ffff">
<path fill="#cad2ff" opacity="1.00" d=" M 153.20 166.13 C 162.11 167.67 170.83 170.14 179.37 173.07 C 183.67 174.55 187.93 176.17 192.15 177.89 C 201.56 181.74 210.73 186.17 219.62 191.11 C 221.07 191.92 222.52 192.74 223.97 193.57 C 224.86 194.08 225.76 194.60 226.65 195.14 C 253.06 210.81 276.92 230.70 297.43 253.53 C 318.99 278.97 332.22 310.23 342.24 341.72 C 347.63 359.52 352.45 377.60 355.08 396.02 C 351.62 409.90 346.16 423.26 340.17 436.25 C 331.75 453.67 321.33 470.67 306.47 483.36 C 295.86 492.42 282.26 498.72 268.10 498.32 C 258.01 497.29 248.59 493.04 239.74 488.31 C 220.96 477.88 204.95 462.95 191.85 446.03 C 175.57 424.97 163.89 400.67 155.61 375.46 C 154.65 372.44 153.70 369.43 152.73 366.42 C 151.36 361.79 150.01 357.16 148.66 352.53 C 136.94 309.07 131.31 263.33 137.79 218.53 C 140.56 200.51 144.93 182.48 153.20 166.13 Z" />
<path fill="#cad2ff" opacity="1.00" d=" M 589.88 217.59 C 614.22 205.62 640.23 196.62 667.16 192.90 C 673.56 207.40 676.17 223.26 677.46 238.95 C 680.53 282.80 670.69 326.58 655.43 367.47 C 643.98 398.29 628.70 428.37 605.80 452.34 C 592.84 465.82 577.45 477.36 559.81 483.90 C 549.44 487.63 538.13 489.95 527.15 487.85 C 513.01 484.89 500.28 477.07 489.89 467.20 C 474.95 453.03 463.79 435.29 455.19 416.69 C 453.74 412.94 450.96 409.23 451.98 405.02 C 454.49 387.89 458.93 371.07 464.86 354.81 C 477.23 320.75 496.62 288.91 523.05 263.93 C 542.89 245.32 565.54 229.74 589.88 217.59 Z" />
</g>
</svg>
