<?xml version="1.0" standalone="no"?><!DOCTYPE svg PUBLIC "-//W3C//DTD SVG 1.1//EN" "http://www.w3.org/Graphics/SVG/1.1/DTD/svg11.dtd"><svg t="1736488251157" class="icon" viewBox="0 0 1066 1024" version="1.1" xmlns="http://www.w3.org/2000/svg" p-id="5564" xmlns:xlink="http://www.w3.org/1999/xlink" width="208.203125" height="200"><path d="M178.629547 274.005333c62.037333-116.565333 225.877333-126.208 324.053333-39.936 29.44 25.898667 44.202667 38.826667 52.224 38.826667 8.064 0 22.784-12.928 52.224-38.826667 98.176-86.272 262.016-76.629333 324.053333 39.936 75.264 141.44-9.813333 271.573333-125.44 396.032-15.36 16.554667-31.104 32.725333-46.805333 48.298667-86.613333 85.888-130.005333 128.853333-204.032 128.853333-74.026667 0-117.333333-42.965333-204.032-128.853333a1639.253333 1639.253333 0 0 1-46.805333-48.256c-115.626667-124.501333-200.704-254.634667-125.44-396.074667z" fill="#09183F" p-id="5565"></path><path d="M28.69888 182.485333c62.037333-116.565333 225.877333-126.165333 324.053333-39.893333 29.44 25.898667 44.202667 38.826667 52.224 38.826667 8.064 0 22.784-12.928 52.224-38.826667 98.176-86.272 262.016-76.672 324.053334 39.893333 75.264 141.482667-9.813333 271.616-125.44 396.074667-15.36 16.554667-31.061333 32.682667-46.762667 48.256-86.698667 85.888-130.005333 128.853333-204.074667 128.853333-74.026667 0-117.333333-42.922667-204.032-128.853333a1628.16 1628.16 0 0 1-46.805333-48.256c-115.626667-124.458667-200.661333-254.592-125.44-396.074667z" fill="#BEC1C8" p-id="5566"></path></svg>